<svg xmlns="http://www.w3.org/2000/svg" viewBox="0 0 54.27 69.66"><defs><style>.cls-1,.cls-2{fill:#fff;}.cls-1,.cls-2,.cls-3{stroke:#333;}.cls-1,.cls-3,.cls-4{stroke-miterlimit:10;}.cls-2{stroke-linecap:round;stroke-linejoin:round;}.cls-3{fill:#fa7a7b;}.cls-4{fill:#068887;stroke:#fff;stroke-width:0.89px;}</style></defs><title>articles@4xу</title><g id="Слой_2" data-name="Слой 2"><g id="Слой_1-2" data-name="Слой 1"><g id="articles"><path class="cls-1" d="M53.77,17.07,37.2.5H2.47a2,2,0,0,0-2,2V67.12a2,2,0,0,0,2,2H53.77Z"/><line class="cls-2" x1="7.01" y1="27.51" x2="45.85" y2="27.51"/><line class="cls-2" x1="7.01" y1="33.51" x2="45.85" y2="33.51"/><line class="cls-2" x1="7.01" y1="39.51" x2="45.85" y2="39.51"/><line class="cls-2" x1="7.01" y1="45.51" x2="45.85" y2="45.51"/><line class="cls-2" x1="7.01" y1="51.51" x2="45.85" y2="51.51"/><line class="cls-2" x1="7.01" y1="57.51" x2="45.85" y2="57.51"/><path class="cls-3" d="M37.2.5V15.17a1.9,1.9,0,0,0,1.9,1.9H53.77"/><path class="cls-4" d="M37.92,1.5V14.63a1.7,1.7,0,0,0,1.7,1.7H52.74"/><line class="cls-1" x1="53.77" y1="17.07" x2="37.2" y2="0.5"/><circle class="cls-1" cx="11.64" cy="14.62" r="4.63"/><line class="cls-2" x1="14.56" y1="18.22" x2="16.66" y2="20.32"/></g></g></g></svg>