<svg xmlns="http://www.w3.org/2000/svg" viewBox="0 0 59.1 77.24"><defs><style>.cls-1{fill:#ebf0f3;}.cls-2,.cls-3,.cls-4{fill:#fff;}.cls-3,.cls-4,.cls-6{stroke:#333;}.cls-3,.cls-4,.cls-5,.cls-6,.cls-7{stroke-miterlimit:10;}.cls-3{stroke-width:0.88px;}.cls-4,.cls-6,.cls-7{stroke-width:0.94px;}.cls-5{fill:#068887;stroke-width:0.89px;}.cls-5,.cls-7{stroke:#fff;}.cls-6{fill:none;}.cls-7{fill:#333;}</style></defs><title>checklist@4xу</title><g id="Слой_2" data-name="Слой 2"><g id="Слой_1-2" data-name="Слой 1"><g id="checklist"><rect class="cls-1" x="5.94" y="13.3" width="47.78" height="60.68"/><rect class="cls-2" x="5.94" y="11.86" width="47.78" height="60.68"/><rect class="cls-3" x="0.44" y="10.81" width="58.22" height="65.99" rx="4.76" ry="4.76"/><path class="cls-4" d="M45.54,7.13a2.62,2.62,0,0,0-2.54-2H34.47a4.64,4.64,0,0,0-9.28,0H16.66a2.6,2.6,0,0,0-2.54,2l-1.5,6.49a.88.88,0,0,0,.86,1.08H46.1A.94.94,0,0,0,47,13.54Zm-15.16.15A2.24,2.24,0,1,1,32,5.67,2.24,2.24,0,0,1,30.38,7.28Z"/><rect class="cls-5" x="10.34" y="37.21" width="10.24" height="10.24" rx="0.89" ry="0.89"/><rect class="cls-6" x="9.56" y="36.43" width="11.8" height="11.8" rx="0.89" ry="0.89"/><rect class="cls-7" x="24.17" y="37.68" width="13.13" height="2.06" rx="1.03" ry="1.03"/><rect class="cls-7" x="24.17" y="44.92" width="26.26" height="2.06" rx="1.03" ry="1.03"/><rect class="cls-5" x="10.34" y="19.88" width="10.24" height="10.24" rx="0.89" ry="0.89"/><rect class="cls-6" x="9.56" y="19.1" width="11.8" height="11.8" rx="0.89" ry="0.89"/><rect class="cls-7" x="24.17" y="20.35" width="13.13" height="2.06" rx="1.03" ry="1.03"/><rect class="cls-7" x="24.17" y="27.59" width="26.26" height="2.06" rx="1.03" ry="1.03"/><rect class="cls-5" x="10.34" y="54.54" width="10.24" height="10.24" rx="0.89" ry="0.89"/><rect class="cls-6" x="9.56" y="53.76" width="11.8" height="11.8" rx="0.89" ry="0.89"/><rect class="cls-7" x="24.17" y="55.01" width="13.13" height="2.06" rx="1.03" ry="1.03"/><rect class="cls-7" x="24.17" y="62.26" width="26.26" height="2.06" rx="1.03" ry="1.03"/></g></g></g></svg>