<svg xmlns="http://www.w3.org/2000/svg" viewBox="0 0 59.38 67.5"><defs><style>.cls-1,.cls-4{fill:#fff;}.cls-1,.cls-5{stroke:#333;}.cls-1,.cls-2,.cls-5{stroke-miterlimit:10;}.cls-2{stroke:#fff;stroke-width:2.11px;}.cls-3{fill:#068887;}.cls-5{fill:none;}</style></defs><title>faq@4xу</title><g id="Слой_2" data-name="Слой 2"><g id="Слой_1-2" data-name="Слой 1"><g id="faq"><path class="cls-1" d="M58.68,26.33a29.26,29.26,0,0,1-29,32.55A21.89,21.89,0,0,1,23.22,58L10,67a.19.19,0,0,1-.3-.19l2-13.94a29.23,29.23,0,1,1,46.92-26.5Z"/><path class="cls-2" d="M29.69,39.89a2,2,0,0,1-2.09-2.08V30.93a2,2,0,0,1,2.09-2.09,5.21,5.21,0,1,0-5.21-5.21,2,2,0,0,1-2.09,2.09,2,2,0,0,1-2.08-2.09,9.38,9.38,0,1,1,18.76,0,9.57,9.57,0,0,1-7.3,9.17v5A2.08,2.08,0,0,1,29.69,39.89Z"/><path class="cls-3" d="M29.69,47.49A2.55,2.55,0,1,1,32.24,45,2.55,2.55,0,0,1,29.69,47.49Z"/><path class="cls-4" d="M29.69,43A1.92,1.92,0,1,1,27.77,45,1.92,1.92,0,0,1,29.69,43m0-1.26A3.18,3.18,0,1,0,32.87,45a3.18,3.18,0,0,0-3.18-3.18Z"/><circle class="cls-5" cx="29.69" cy="44.95" r="3.18"/></g></g></g></svg>