<svg xmlns="http://www.w3.org/2000/svg" viewBox="0 0 74.59 72.18"><defs><style>.cls-1{fill:#333;stroke:#fff;stroke-width:1.4px;}.cls-1,.cls-2,.cls-5,.cls-6{stroke-miterlimit:10;}.cls-2,.cls-4,.cls-6{fill:#fff;}.cls-2,.cls-5,.cls-6{stroke:#333;}.cls-3{fill:#068887;}.cls-5{fill:none;}.cls-6{stroke-width:0.61px;}</style></defs><title>local experts@4xу</title><g id="Слой_2" data-name="Слой 2"><g id="Слой_1-2" data-name="Слой 1"><g id="local_experts" data-name="local experts"><path class="cls-1" d="M37.3,66.48A1.27,1.27,0,0,1,36,65.21V61.4a1.27,1.27,0,1,1,2.53,0v3.81A1.26,1.26,0,0,1,37.3,66.48Z"/><path class="cls-2" d="M3,8.11H71.55V59.6a1.8,1.8,0,0,1-1.8,1.8H4.87A1.83,1.83,0,0,1,3,59.57Z"/><path class="cls-1" d="M16.43,46.74a1.26,1.26,0,0,1-.9-.37,1.27,1.27,0,0,1,0-1.79l3.67-3.67A1.27,1.27,0,1,1,21,42.7l-3.67,3.67A1.27,1.27,0,0,1,16.43,46.74Z"/><path class="cls-1" d="M30.25,46.74a1.26,1.26,0,0,1-.9-.37L25.68,42.7a1.27,1.27,0,1,1,1.8-1.79l3.67,3.67a1.27,1.27,0,0,1-.9,2.16Z"/><path class="cls-1" d="M34.91,47.29a1.27,1.27,0,0,1-.9-2.16L44.58,34.57a1.27,1.27,0,0,1,1.79,1.79L35.81,46.92A1.26,1.26,0,0,1,34.91,47.29Z"/><path class="cls-1" d="M59.43,44.2a1.27,1.27,0,0,1-.9-.37l-7.47-7.47a1.27,1.27,0,1,1,1.79-1.8L60.33,42a1.27,1.27,0,0,1,0,1.79A1.26,1.26,0,0,1,59.43,44.2Z"/><rect class="cls-2" x="0.5" y="0.5" width="73.59" height="7.61" rx="0.76" ry="0.76"/><path class="cls-1" d="M23.34,23.34h-14a1.27,1.27,0,0,1,0-2.54h14a1.27,1.27,0,1,1,0,2.54Z"/><path class="cls-1" d="M15.73,18.26H9.38a1.27,1.27,0,1,1,0-2.53h6.35a1.27,1.27,0,0,1,0,2.53Z"/><path class="cls-1" d="M23.34,28.41h-14a1.27,1.27,0,1,1,0-2.53h14a1.27,1.27,0,1,1,0,2.53Z"/><circle class="cls-3" cx="23.34" cy="39.83" r="3.16"/><path class="cls-4" d="M23.34,37.33a2.51,2.51,0,1,1-2.51,2.5,2.51,2.51,0,0,1,2.51-2.5m0-1.3a3.81,3.81,0,1,0,3.81,3.8A3.81,3.81,0,0,0,23.34,36Z"/><circle class="cls-5" cx="23.34" cy="39.83" r="3.81"/><path class="cls-3" d="M48.71,36.65a3.16,3.16,0,1,1,3.16-3.16A3.16,3.16,0,0,1,48.71,36.65Z"/><path class="cls-4" d="M48.72,31a2.51,2.51,0,1,1-2.51,2.51A2.51,2.51,0,0,1,48.72,31m0-1.3a3.81,3.81,0,1,0,3.8,3.81,3.81,3.81,0,0,0-3.8-3.81Z"/><circle class="cls-5" cx="48.72" cy="33.49" r="3.81"/><circle class="cls-3" cx="61.4" cy="46.18" r="3.16"/><path class="cls-4" d="M61.4,43.67a2.51,2.51,0,1,1-2.5,2.51,2.51,2.51,0,0,1,2.5-2.51m0-1.3a3.81,3.81,0,1,0,3.81,3.81,3.81,3.81,0,0,0-3.81-3.81Z"/><circle class="cls-5" cx="61.4" cy="46.18" r="3.81"/><circle class="cls-3" cx="32.22" cy="48.72" r="3.16"/><path class="cls-4" d="M32.22,46.21a2.51,2.51,0,1,1-2.51,2.51,2.51,2.51,0,0,1,2.51-2.51m0-1.3A3.81,3.81,0,1,0,36,48.72a3.81,3.81,0,0,0-3.81-3.81Z"/><circle class="cls-5" cx="32.22" cy="48.72" r="3.81"/><circle class="cls-3" cx="14.46" cy="48.72" r="3.16"/><path class="cls-4" d="M14.46,46.21A2.51,2.51,0,1,1,12,48.72a2.5,2.5,0,0,1,2.51-2.51m0-1.3a3.81,3.81,0,1,0,3.8,3.81,3.8,3.8,0,0,0-3.8-3.81Z"/><circle class="cls-5" cx="14.46" cy="48.72" r="3.81"/><circle class="cls-6" cx="37.3" cy="68.29" r="3.59"/></g></g></g></svg>