<svg xmlns="http://www.w3.org/2000/svg" viewBox="0 0 62.11 69.3"><defs><style>.cls-1,.cls-4{fill:#068887;}.cls-1,.cls-2,.cls-4,.cls-6,.cls-7,.cls-8{stroke:#fff;}.cls-1,.cls-2,.cls-3,.cls-4,.cls-5,.cls-6,.cls-7,.cls-8{stroke-miterlimit:10;}.cls-1{stroke-width:0.88px;}.cls-2{fill:#fa7a7b;}.cls-3,.cls-6,.cls-7{fill:none;}.cls-3,.cls-5{stroke:#333;}.cls-4{stroke-width:0.91px;}.cls-5{fill:#fff;}.cls-6{stroke-width:0.97px;}.cls-7{stroke-width:0.96px;}.cls-8{fill:#333;stroke-width:1.5px;}</style></defs><title>store (3)@4xу</title><g id="Слой_2" data-name="Слой 2"><g id="Слой_1-2" data-name="Слой 1"><g id="store"><path class="cls-1" d="M48.18,10.24,35.41,9.61a1.14,1.14,0,0,1-1-.69l-.84-2.08a1.09,1.09,0,0,1,.62-1.42l10.08-4a1.12,1.12,0,0,1,1.32.38L50,7.87a1.09,1.09,0,0,1-.25,1.54l-.88.62A1.09,1.09,0,0,1,48.18,10.24Z"/><path class="cls-2" d="M17.62,10.48l-.41-.79A1.26,1.26,0,0,1,17.76,8L28,2.76a1.25,1.25,0,0,1,1.34.12l6.62,5.06a1.26,1.26,0,0,1,.24,1.77l-.64.83a1.26,1.26,0,0,1-1,.5l-15.77.13A1.27,1.27,0,0,1,17.62,10.48Z"/><path class="cls-3" d="M48.75,10.7,34.25,10a1.28,1.28,0,0,1-1.11-.79l-1-2.38a1.26,1.26,0,0,1,.7-1.64L44.34.59A1.24,1.24,0,0,1,45.83,1l5,7a1.26,1.26,0,0,1-.29,1.76l-1,.72A1.25,1.25,0,0,1,48.75,10.7Z"/><path class="cls-4" d="M18.71,10.69,18.35,10a1.19,1.19,0,0,1,.48-1.58l9.05-4.89a1.1,1.1,0,0,1,1.19.11L35,8.32A1.22,1.22,0,0,1,35.16,10l-.57.78a1.08,1.08,0,0,1-.88.46l-14,.12A1.09,1.09,0,0,1,18.71,10.69Z"/><path class="cls-3" d="M17.62,10.48l-.41-.79A1.26,1.26,0,0,1,17.76,8L28,2.76a1.25,1.25,0,0,1,1.34.12l6.62,5.06a1.26,1.26,0,0,1,.24,1.77l-.64.83a1.26,1.26,0,0,1-1,.5l-15.77.13A1.27,1.27,0,0,1,17.62,10.48Z"/><path class="cls-5" d="M59.35,68.8H2.76A2.26,2.26,0,0,1,.51,66.31L6.3,10.63a2.25,2.25,0,0,1,2.24-2h45a2.26,2.26,0,0,1,2.25,2l.83,8,5,47.66A2.25,2.25,0,0,1,59.35,68.8Z"/><circle class="cls-6" cx="42.02" cy="20.31" r="2.4"/><circle class="cls-7" cx="20.09" cy="20.31" r="2.38"/><path class="cls-8" d="M31.1,44.08A12.09,12.09,0,0,1,19,32V24.2a1.42,1.42,0,0,1,2.84,0V32a9.24,9.24,0,0,0,18.47,0V24.75a1.46,1.46,0,0,1-.11-.55,1.42,1.42,0,0,1,1.42-1.42h.11a1.41,1.41,0,0,1,1.42,1.42V32A12.08,12.08,0,0,1,31.1,44.08Z"/><circle class="cls-5" cx="41.75" cy="22.78" r="2.84"/><circle class="cls-5" cx="20.44" cy="22.78" r="2.84"/></g></g></g></svg>