<svg xmlns="http://www.w3.org/2000/svg" viewBox="0 0 70.65 75.57"><defs><style>.cls-1,.cls-2{fill:#fff;}.cls-1,.cls-2,.cls-5{stroke:#333;}.cls-1,.cls-4,.cls-5{stroke-miterlimit:10;}.cls-2{stroke-linecap:round;stroke-linejoin:round;}.cls-3{fill:#068887;}.cls-4,.cls-5{fill:none;}.cls-4{stroke:#fff;stroke-width:2.5px;}.cls-5{stroke-width:0.75px;}</style></defs><title>vendor (4)@4xу</title><g id="Слой_2" data-name="Слой 2"><g id="Слой_1-2" data-name="Слой 1"><g id="vendor"><circle class="cls-1" cx="33.92" cy="33.92" r="33.42"/><line class="cls-2" x1="54.95" y1="59.88" x2="70.15" y2="75.07"/><path class="cls-3" d="M38.15,33.53a8.55,8.55,0,1,0-8.46,0,15.5,15.5,0,0,0-11.27,14.9h31A15.51,15.51,0,0,0,38.15,33.53Z"/><path class="cls-4" d="M38.15,33.53a8.55,8.55,0,1,0-8.46,0,15.5,15.5,0,0,0-11.27,14.9h31A15.51,15.51,0,0,0,38.15,33.53Z"/><path class="cls-5" d="M38.15,33.53a8.55,8.55,0,1,0-8.46,0,15.5,15.5,0,0,0-11.27,14.9h31A15.51,15.51,0,0,0,38.15,33.53Z"/></g></g></g></svg>