<svg xmlns="http://www.w3.org/2000/svg" viewBox="0 0 24.37 21.73"><g data-name="Слой 2"><g data-name="Слой 1"><path d="M12.19 21.54a1.45 1.45 0 01-.93-.35c-1-.85-1.9-1.65-2.73-2.35h0a51.19 51.19 0 01-6-5.59A9 9 0 01.19 7.4a7.55 7.55 0 011.9-5.12A6.48 6.48 0 016.89.19a6 6 0 013.77 1.3 7.69 7.69 0 011.53 1.59 7.9 7.9 0 011.52-1.59 6.07 6.07 0 013.77-1.3 6.48 6.48 0 014.8 2.09 7.45 7.45 0 011.9 5.12 8.88 8.88 0 01-2.38 5.85 50.41 50.41 0 01-6 5.59c-.83.7-1.76 1.5-2.74 2.35a1.4 1.4 0 01-.87.35zM6.89 1.6a5.06 5.06 0 00-3.76 1.63A6.1 6.1 0 001.6 7.4a7.48 7.48 0 002.05 4.95 50.28 50.28 0 005.79 5.42h0l2.75 2.36 2.75-2.36a49.38 49.38 0 005.78-5.42 7.54 7.54 0 002.06-4.95 6.05 6.05 0 00-1.53-4.17 5.08 5.08 0 00-3.77-1.63 4.73 4.73 0 00-2.91 1A6.93 6.93 0 0013 4.48a.89.89 0 01-1.52 0A7 7 0 009.8 2.6a4.59 4.59 0 00-2.91-1z" fill="#4d4d4d" stroke="#fff" stroke-miterlimit="10" stroke-width=".38" data-name="Capa 1"/></g></g></svg>