<svg xmlns="http://www.w3.org/2000/svg" viewBox="0 0 59.1 77.24"><defs><style>.cls-6{stroke:#333}.cls-5,.cls-6,.cls-7{stroke-miterlimit:10}.cls-6,.cls-7{stroke-width:.94px}.cls-5{fill:#068887;stroke-width:.89px}.cls-5,.cls-7{stroke:#fff}.cls-6{fill:none}.cls-7{fill:#333}</style></defs><g id="Слой_2" data-name="Слой 2"><g id="Слой_1-2" data-name="Слой 1"><g id="checklist"><path fill="#ebf0f3" d="M5.94 13.3h47.78v60.68H5.94z"/><path fill="#fff" d="M5.94 11.86h47.78v60.68H5.94z"/><rect x=".44" y="10.81" width="58.22" height="65.99" rx="4.76" ry="4.76" stroke-width=".88" stroke-miterlimit="10" stroke="#333" fill="#fff"/><path d="M45.54 7.13a2.62 2.62 0 00-2.54-2h-8.53a4.64 4.64 0 00-9.28 0h-8.53a2.6 2.6 0 00-2.54 2l-1.5 6.49a.88.88 0 00.86 1.08H46.1a.94.94 0 00.9-1.16zm-15.16.15A2.24 2.24 0 1132 5.67a2.24 2.24 0 01-1.62 1.61z" stroke-width=".94" stroke-miterlimit="10" stroke="#333" fill="#fff"/><rect class="cls-5" x="10.34" y="37.21" width="10.24" height="10.24" rx=".89" ry=".89"/><rect class="cls-6" x="9.56" y="36.43" width="11.8" height="11.8" rx=".89" ry=".89"/><rect class="cls-7" x="24.17" y="37.68" width="13.13" height="2.06" rx="1.03" ry="1.03"/><rect class="cls-7" x="24.17" y="44.92" width="26.26" height="2.06" rx="1.03" ry="1.03"/><rect class="cls-5" x="10.34" y="19.88" width="10.24" height="10.24" rx=".89" ry=".89"/><rect class="cls-6" x="9.56" y="19.1" width="11.8" height="11.8" rx=".89" ry=".89"/><rect class="cls-7" x="24.17" y="20.35" width="13.13" height="2.06" rx="1.03" ry="1.03"/><rect class="cls-7" x="24.17" y="27.59" width="26.26" height="2.06" rx="1.03" ry="1.03"/><rect class="cls-5" x="10.34" y="54.54" width="10.24" height="10.24" rx=".89" ry=".89"/><rect class="cls-6" x="9.56" y="53.76" width="11.8" height="11.8" rx=".89" ry=".89"/><rect class="cls-7" x="24.17" y="55.01" width="13.13" height="2.06" rx="1.03" ry="1.03"/><rect class="cls-7" x="24.17" y="62.26" width="26.26" height="2.06" rx="1.03" ry="1.03"/></g></g></g></svg>