<svg xmlns="http://www.w3.org/2000/svg" viewBox="0 0 50.04 78.06"><defs><style>.cls-1{fill:#068887;}.cls-2,.cls-3{fill:#fff;}.cls-3{stroke:#333;}.cls-3,.cls-4{stroke-miterlimit:10;}.cls-4{stroke:#fff;stroke-width:1.3px;}</style></defs><title>create free account@4xу</title><g id="Слой_2" data-name="Слой 2"><g id="Слой_1-2" data-name="Слой 1"><g id="create_free_account" data-name="create free account"><rect class="cls-1" x="25.21" y="10.52" width="18.1" height="56.58"/><path class="cls-2" d="M40.65,13.17V64.44H27.86V13.17H40.65M46,7.87H22.56V69.75H46V7.87Z"/><polygon class="cls-3" points="27.93 77.45 0.5 71.96 0.5 7.96 27.93 0.65 27.93 77.45"/><polygon class="cls-3" points="27.93 73.47 46.21 73.47 49.54 73.47 49.54 70.14 49.54 7.96 49.54 4.63 46.21 4.63 27.93 4.63 27.93 11.29 42.88 11.29 42.88 66.81 27.93 66.81 27.93 73.47"/><path class="cls-4" d="M21.54,43.26a1.37,1.37,0,1,0,0-2.74H16.85a1.37,1.37,0,1,0,0,2.74Z"/></g></g></g></svg>