<svg xmlns="http://www.w3.org/2000/svg" viewBox="0 0 77.09 77.09"><defs><style>.cls-1{fill:#fff;}.cls-2{fill:#333;stroke:#fff;stroke-miterlimit:10;stroke-width:1.4px;}.cls-3{fill:#068887;}</style></defs><title>dress@4xу</title><g id="Слой_2" data-name="Слой 2"><g id="Слой_1-2" data-name="Слой 1"><g id="dress"><path class="cls-1" d="M47.29,25.53l3.77-7a5.66,5.66,0,0,0-5-8.32,5.68,5.68,0,0,0-5.44,4.1l-1,3.32a1.18,1.18,0,0,1-2.27,0l-.95-3.32A5.69,5.69,0,0,0,31,10.16h-.66a5.66,5.66,0,0,0-5.13,8.05l3.42,7.32Z"/><path class="cls-1" d="M19,57.46a3.73,3.73,0,0,0,2.55-1,6.24,6.24,0,0,1,7.9,0,3.73,3.73,0,0,0,2.55,1,3.77,3.77,0,0,0,2.56-1,6.22,6.22,0,0,1,7.89,0,3.91,3.91,0,0,0,5.11,0,6.24,6.24,0,0,1,7.9,0,3.92,3.92,0,0,0,5.12,0,7.87,7.87,0,0,1,1.77-1l-15-22.85H28.55L14.28,55.34a6.89,6.89,0,0,1,2.19,1.17A3.77,3.77,0,0,0,19,57.46Zm37.25-7.09a1.18,1.18,0,1,1-1.18,1.18A1.18,1.18,0,0,1,56.28,50.37Zm-5.91,0a1.18,1.18,0,1,1-1.18,1.18A1.18,1.18,0,0,1,50.37,50.37Zm-5.91,0a1.18,1.18,0,1,1-1.19,1.18A1.18,1.18,0,0,1,44.46,50.37Zm-5.92,0a1.18,1.18,0,1,1-1.18,1.18A1.18,1.18,0,0,1,38.54,50.37Zm-5.91,0a1.18,1.18,0,1,1-1.18,1.18A1.18,1.18,0,0,1,32.63,50.37Zm-5.91,0a1.18,1.18,0,1,1-1.19,1.18A1.18,1.18,0,0,1,26.72,50.37Zm-5.92,0a1.18,1.18,0,1,1-1.18,1.18A1.18,1.18,0,0,1,20.8,50.37Z"/><path class="cls-1" d="M62,58.42a6.24,6.24,0,0,1-7.9,0,3.89,3.89,0,0,0-5.12,0,6.22,6.22,0,0,1-7.89,0,3.88,3.88,0,0,0-5.11,0,6.24,6.24,0,0,1-7.9,0,3.87,3.87,0,0,0-5.1,0,6.24,6.24,0,0,1-7.9,0,3.83,3.83,0,0,0-2.16-.92L3.82,72a6.64,6.64,0,0,1,1.84,1.11,3.37,3.37,0,0,0,4.65,0,5.71,5.71,0,0,1,7.56,0,3.38,3.38,0,0,0,4.66,0,5.7,5.7,0,0,1,7.55,0,3.32,3.32,0,0,0,2.33.93,3.29,3.29,0,0,0,2.33-.93,5.71,5.71,0,0,1,7.56,0,3.4,3.4,0,0,0,4.67,0,5.7,5.7,0,0,1,7.55,0,3.4,3.4,0,0,0,4.67,0,5.71,5.71,0,0,1,7.56,0,3.4,3.4,0,0,0,4.67,0A6.74,6.74,0,0,1,73.23,72L63.74,57.54A4.16,4.16,0,0,0,62,58.42ZM9,69.29a1.18,1.18,0,1,1,1.18-1.18A1.18,1.18,0,0,1,9,69.29Zm5.91,0a1.18,1.18,0,1,1,1.18-1.18A1.18,1.18,0,0,1,14.89,69.29Zm5.91,0A1.18,1.18,0,1,1,22,68.11,1.18,1.18,0,0,1,20.8,69.29Zm5.92,0a1.18,1.18,0,1,1,1.18-1.18A1.18,1.18,0,0,1,26.72,69.29Zm5.91,0a1.18,1.18,0,1,1,1.18-1.18A1.18,1.18,0,0,1,32.63,69.29Zm5.91,0a1.18,1.18,0,1,1,1.19-1.18A1.18,1.18,0,0,1,38.54,69.29Zm5.92,0a1.18,1.18,0,1,1,1.18-1.18A1.18,1.18,0,0,1,44.46,69.29Zm5.91,0a1.18,1.18,0,1,1,1.18-1.18A1.18,1.18,0,0,1,50.37,69.29Zm5.91,0a1.18,1.18,0,1,1,1.19-1.18A1.18,1.18,0,0,1,56.28,69.29Zm5.92,0a1.18,1.18,0,1,1,1.18-1.18A1.18,1.18,0,0,1,62.2,69.29Zm5.91-2.36a1.18,1.18,0,1,1-1.18,1.18A1.18,1.18,0,0,1,68.11,66.93Z"/><path class="cls-2" d="M76.19,72.19l-27-41.1V27l4-7.42A8,8,0,0,0,48,8V.7H45.64V7.83A8.06,8.06,0,0,0,38.54,13a8,8,0,0,0-7.09-5.21V.7H29.08V7.91a8,8,0,0,0-6,11.3L26.72,27v4.13L.88,72.21a1.18,1.18,0,0,0,1,1.81A3.27,3.27,0,0,1,4.21,75a5.7,5.7,0,0,0,7.55,0,3.36,3.36,0,0,1,4.66,0A5.7,5.7,0,0,0,24,75a3.37,3.37,0,0,1,4.67,0,5.7,5.7,0,0,0,7.55,0,3.37,3.37,0,0,1,4.67,0,5.7,5.7,0,0,0,7.55,0,3.37,3.37,0,0,1,4.67,0,5.7,5.7,0,0,0,7.55,0,3.37,3.37,0,0,1,4.67,0,5.72,5.72,0,0,0,7.57,0A3.27,3.27,0,0,1,75.2,74a1.18,1.18,0,0,0,1-1.83Zm-51-54a5.66,5.66,0,0,1,5.13-8H31a5.69,5.69,0,0,1,5.44,4.1l.95,3.32a1.18,1.18,0,0,0,2.27,0l1-3.32a5.68,5.68,0,0,1,5.44-4.1,5.66,5.66,0,0,1,5,8.32l-3.77,7.05H28.65ZM46.82,27.9v2.37H29.08V27.9ZM28.55,32.63H47.37l15,22.85a7.87,7.87,0,0,0-1.77,1,3.92,3.92,0,0,1-5.12,0,6.24,6.24,0,0,0-7.9,0,3.91,3.91,0,0,1-5.11,0,6.22,6.22,0,0,0-7.89,0,3.77,3.77,0,0,1-2.56,1,3.73,3.73,0,0,1-2.55-1,6.24,6.24,0,0,0-7.9,0,3.73,3.73,0,0,1-2.55,1,3.77,3.77,0,0,1-2.56-1,6.7,6.7,0,0,0-2.19-1.17ZM71.42,73.09a3.4,3.4,0,0,1-4.67,0,5.71,5.71,0,0,0-7.56,0,3.4,3.4,0,0,1-4.67,0,5.7,5.7,0,0,0-7.55,0,3.4,3.4,0,0,1-4.67,0,5.71,5.71,0,0,0-7.56,0,3.38,3.38,0,0,1-4.66,0,5.7,5.7,0,0,0-7.55,0,3.38,3.38,0,0,1-4.66,0,5.71,5.71,0,0,0-7.56,0,3.37,3.37,0,0,1-4.65,0A6.79,6.79,0,0,0,3.82,72l9.1-14.48a3.83,3.83,0,0,1,2.16.92,6.24,6.24,0,0,0,7.9,0,3.87,3.87,0,0,1,5.1,0,6.24,6.24,0,0,0,7.9,0,3.88,3.88,0,0,1,5.11,0,6.22,6.22,0,0,0,7.89,0,3.89,3.89,0,0,1,5.12,0,6.24,6.24,0,0,0,7.9,0,4.16,4.16,0,0,1,1.74-.88L73.23,72A6.74,6.74,0,0,0,71.42,73.09Z"/><rect class="cls-3" x="29.08" y="27.9" width="17.74" height="2.37"/></g></g></g></svg>