<svg xmlns="http://www.w3.org/2000/svg" viewBox="0 0 77.09 77.09"><defs><style>.cls-1{fill:#fff}</style></defs><g id="Слой_2" data-name="Слой 2"><g id="Слой_1-2" data-name="Слой 1"><g id="dress"><path class="cls-1" d="M47.29 25.53l3.77-7a5.66 5.66 0 00-5-8.32 5.68 5.68 0 00-5.44 4.1l-1 3.32a1.18 1.18 0 01-2.27 0l-.95-3.32a5.69 5.69 0 00-5.4-4.15h-.66a5.66 5.66 0 00-5.13 8.05l3.42 7.32zM19 57.46a3.73 3.73 0 002.55-1 6.24 6.24 0 017.9 0 3.73 3.73 0 002.55 1 3.77 3.77 0 002.56-1 6.22 6.22 0 017.89 0 3.91 3.91 0 005.11 0 6.24 6.24 0 017.9 0 3.92 3.92 0 005.12 0 7.87 7.87 0 011.77-1l-15-22.85h-18.8L14.28 55.34a6.89 6.89 0 012.19 1.17 3.77 3.77 0 002.53.95zm37.25-7.09a1.18 1.18 0 11-1.18 1.18 1.18 1.18 0 011.21-1.18zm-5.91 0a1.18 1.18 0 11-1.18 1.18 1.18 1.18 0 011.21-1.18zm-5.91 0a1.18 1.18 0 11-1.19 1.18 1.18 1.18 0 011.22-1.18zm-5.92 0a1.18 1.18 0 11-1.18 1.18 1.18 1.18 0 011.21-1.18zm-5.91 0a1.18 1.18 0 11-1.18 1.18 1.18 1.18 0 011.21-1.18zm-5.91 0a1.18 1.18 0 11-1.19 1.18 1.18 1.18 0 011.22-1.18zm-5.92 0a1.18 1.18 0 11-1.18 1.18 1.18 1.18 0 011.21-1.18z"/><path class="cls-1" d="M62 58.42a6.24 6.24 0 01-7.9 0 3.89 3.89 0 00-5.12 0 6.22 6.22 0 01-7.89 0 3.88 3.88 0 00-5.11 0 6.24 6.24 0 01-7.9 0 3.87 3.87 0 00-5.1 0 6.24 6.24 0 01-7.9 0 3.83 3.83 0 00-2.16-.92L3.82 72a6.64 6.64 0 011.84 1.11 3.37 3.37 0 004.65 0 5.71 5.71 0 017.56 0 3.38 3.38 0 004.66 0 5.7 5.7 0 017.55 0 3.32 3.32 0 002.33.93 3.29 3.29 0 002.33-.93 5.71 5.71 0 017.56 0 3.4 3.4 0 004.67 0 5.7 5.7 0 017.55 0 3.4 3.4 0 004.67 0 5.71 5.71 0 017.56 0 3.4 3.4 0 004.67 0A6.74 6.74 0 0173.23 72l-9.49-14.46a4.16 4.16 0 00-1.74.88zM9 69.29a1.18 1.18 0 111.18-1.18A1.18 1.18 0 019 69.29zm5.91 0a1.18 1.18 0 111.18-1.18 1.18 1.18 0 01-1.2 1.18zm5.91 0A1.18 1.18 0 1122 68.11a1.18 1.18 0 01-1.2 1.18zm5.92 0a1.18 1.18 0 111.18-1.18 1.18 1.18 0 01-1.2 1.18zm5.91 0a1.18 1.18 0 111.18-1.18 1.18 1.18 0 01-1.2 1.18zm5.91 0a1.18 1.18 0 111.19-1.18 1.18 1.18 0 01-1.21 1.18zm5.92 0a1.18 1.18 0 111.18-1.18 1.18 1.18 0 01-1.2 1.18zm5.91 0a1.18 1.18 0 111.18-1.18 1.18 1.18 0 01-1.2 1.18zm5.91 0a1.18 1.18 0 111.19-1.18 1.18 1.18 0 01-1.21 1.18zm5.92 0a1.18 1.18 0 111.18-1.18 1.18 1.18 0 01-1.2 1.18zm5.91-2.36a1.18 1.18 0 11-1.18 1.18 1.18 1.18 0 011.16-1.18z"/><path d="M76.19 72.19l-27-41.1V27l4-7.42A8 8 0 0048 8V.7h-2.36v7.13a8.06 8.06 0 00-7.1 5.17 8 8 0 00-7.09-5.21V.7h-2.37v7.21a8 8 0 00-6 11.3L26.72 27v4.13L.88 72.21a1.18 1.18 0 001 1.81 3.27 3.27 0 012.33.98 5.7 5.7 0 007.55 0 3.36 3.36 0 014.66 0A5.7 5.7 0 0024 75a3.37 3.37 0 014.67 0 5.7 5.7 0 007.55 0 3.37 3.37 0 014.67 0 5.7 5.7 0 007.55 0 3.37 3.37 0 014.67 0 5.7 5.7 0 007.55 0 3.37 3.37 0 014.67 0 5.72 5.72 0 007.57 0 3.27 3.27 0 012.3-1 1.18 1.18 0 001-1.83zm-51-54a5.66 5.66 0 015.13-8H31a5.69 5.69 0 015.44 4.1l.95 3.32a1.18 1.18 0 002.27 0l1-3.32a5.68 5.68 0 015.44-4.1 5.66 5.66 0 015 8.32l-3.77 7.05H28.65zm21.63 9.71v2.37H29.08V27.9zm-18.27 4.73h18.82l15 22.85a7.87 7.87 0 00-1.77 1 3.92 3.92 0 01-5.12 0 6.24 6.24 0 00-7.9 0 3.91 3.91 0 01-5.11 0 6.22 6.22 0 00-7.89 0 3.77 3.77 0 01-2.56 1 3.73 3.73 0 01-2.55-1 6.24 6.24 0 00-7.9 0 3.73 3.73 0 01-2.55 1 3.77 3.77 0 01-2.56-1 6.7 6.7 0 00-2.19-1.17zm42.87 40.46a3.4 3.4 0 01-4.67 0 5.71 5.71 0 00-7.56 0 3.4 3.4 0 01-4.67 0 5.7 5.7 0 00-7.55 0 3.4 3.4 0 01-4.67 0 5.71 5.71 0 00-7.56 0 3.38 3.38 0 01-4.66 0 5.7 5.7 0 00-7.55 0 3.38 3.38 0 01-4.66 0 5.71 5.71 0 00-7.56 0 3.37 3.37 0 01-4.65 0A6.79 6.79 0 003.82 72l9.1-14.48a3.83 3.83 0 012.16.92 6.24 6.24 0 007.9 0 3.87 3.87 0 015.1 0 6.24 6.24 0 007.9 0 3.88 3.88 0 015.11 0 6.22 6.22 0 007.89 0 3.89 3.89 0 015.12 0 6.24 6.24 0 007.9 0 4.16 4.16 0 011.74-.88L73.23 72a6.74 6.74 0 00-1.81 1.09z" fill="#333" stroke="#fff" stroke-miterlimit="10" stroke-width="1.4"/><path fill="#068887" d="M29.08 27.9h17.74v2.37H29.08z"/></g></g></g></svg>