<svg xmlns="http://www.w3.org/2000/svg" viewBox="0 0 74.59 72.18"><defs><style>.cls-1{fill:#333;stroke:#fff;stroke-width:1.4px}.cls-1,.cls-2,.cls-5{stroke-miterlimit:10}.cls-2,.cls-4{fill:#fff}.cls-2,.cls-5{stroke:#333}.cls-3{fill:#068887}.cls-5{fill:none}</style></defs><g id="Слой_2" data-name="Слой 2"><g id="Слой_1-2" data-name="Слой 1"><g id="local_experts" data-name="local experts"><path class="cls-1" d="M37.3 66.48a1.27 1.27 0 01-1.3-1.27V61.4a1.27 1.27 0 112.53 0v3.81a1.26 1.26 0 01-1.23 1.27z"/><path class="cls-2" d="M3 8.11h68.55V59.6a1.8 1.8 0 01-1.8 1.8H4.87A1.83 1.83 0 013 59.57z"/><path class="cls-1" d="M16.43 46.74a1.26 1.26 0 01-.9-.37 1.27 1.27 0 010-1.79l3.67-3.67A1.27 1.27 0 1121 42.7l-3.67 3.67a1.27 1.27 0 01-.9.37zm13.82 0a1.26 1.26 0 01-.9-.37l-3.67-3.67a1.27 1.27 0 111.8-1.79l3.67 3.67a1.27 1.27 0 01-.9 2.16zm4.66.55a1.27 1.27 0 01-.9-2.16l10.57-10.56a1.27 1.27 0 011.79 1.79L35.81 46.92a1.26 1.26 0 01-.9.37zm24.52-3.09a1.27 1.27 0 01-.9-.37l-7.47-7.47a1.27 1.27 0 111.79-1.8L60.33 42a1.27 1.27 0 010 1.79 1.26 1.26 0 01-.9.41z"/><rect class="cls-2" x=".5" y=".5" width="73.59" height="7.61" rx=".76" ry=".76"/><path class="cls-1" d="M23.34 23.34h-14a1.27 1.27 0 010-2.54h14a1.27 1.27 0 110 2.54zm-7.61-5.08H9.38a1.27 1.27 0 110-2.53h6.35a1.27 1.27 0 010 2.53zm7.61 10.15h-14a1.27 1.27 0 110-2.53h14a1.27 1.27 0 110 2.53z"/><circle class="cls-3" cx="23.34" cy="39.83" r="3.16"/><path class="cls-4" d="M23.34 37.33a2.51 2.51 0 11-2.51 2.5 2.51 2.51 0 012.51-2.5m0-1.3a3.81 3.81 0 103.81 3.8A3.81 3.81 0 0023.34 36z"/><circle class="cls-5" cx="23.34" cy="39.83" r="3.81"/><path class="cls-3" d="M48.71 36.65a3.16 3.16 0 113.16-3.16 3.16 3.16 0 01-3.16 3.16z"/><path class="cls-4" d="M48.72 31a2.51 2.51 0 11-2.51 2.51A2.51 2.51 0 0148.72 31m0-1.3a3.81 3.81 0 103.8 3.81 3.81 3.81 0 00-3.8-3.81z"/><circle class="cls-5" cx="48.72" cy="33.49" r="3.81"/><circle class="cls-3" cx="61.4" cy="46.18" r="3.16"/><path class="cls-4" d="M61.4 43.67a2.51 2.51 0 11-2.5 2.51 2.51 2.51 0 012.5-2.51m0-1.3a3.81 3.81 0 103.81 3.81 3.81 3.81 0 00-3.81-3.81z"/><circle class="cls-5" cx="61.4" cy="46.18" r="3.81"/><circle class="cls-3" cx="32.22" cy="48.72" r="3.16"/><path class="cls-4" d="M32.22 46.21a2.51 2.51 0 11-2.51 2.51 2.51 2.51 0 012.51-2.51m0-1.3A3.81 3.81 0 1036 48.72a3.81 3.81 0 00-3.81-3.81z"/><circle class="cls-5" cx="32.22" cy="48.72" r="3.81"/><circle class="cls-3" cx="14.46" cy="48.72" r="3.16"/><path class="cls-4" d="M14.46 46.21A2.51 2.51 0 1112 48.72a2.5 2.5 0 012.51-2.51m0-1.3a3.81 3.81 0 103.8 3.81 3.8 3.8 0 00-3.8-3.81z"/><circle class="cls-5" cx="14.46" cy="48.72" r="3.81"/><circle cx="37.3" cy="68.29" r="3.59" stroke-width=".61" stroke="#333" fill="#fff" stroke-miterlimit="10"/></g></g></g></svg>