<svg xmlns="http://www.w3.org/2000/svg" viewBox="0 0 74.58 74.58"><defs><style>.cls-3{stroke-miterlimit:10;fill:#333;stroke:#fff}</style></defs><g id="Слой_2" data-name="Слой 2"><g id="Слой_1-2" data-name="Слой 1"><g id="music"><path d="M37.29.5a36.79 36.79 0 1036.79 36.79A36.79 36.79 0 0037.29.5zm0 45.77a9 9 0 119-9 9 9 0 01-9 9z" stroke-miterlimit="10" stroke="#333" fill="#fff"/><circle cx="37.29" cy="37.29" r="11.43" fill="#fff"/><path class="cls-3" d="M14.85 31.23h-.29a1.26 1.26 0 01-.94-1.52 21.45 21.45 0 0116.06-16.09 1.27 1.27 0 11.57 2.47 18.9 18.9 0 00-14.16 14.16 1.27 1.27 0 01-1.24.98zM44.62 61a1.27 1.27 0 01-.29-2.5 18.93 18.93 0 0014.16-14.17 1.27 1.27 0 112.47.58A21.49 21.49 0 0144.9 61a1.33 1.33 0 01-.28 0z"/><path class="cls-3" d="M21 32.87h-.28a1.27 1.27 0 01-1-1.51 15.21 15.21 0 0111.59-11.6 1.27 1.27 0 01.55 2.47 12.72 12.72 0 00-9.67 9.67 1.26 1.26 0 01-1.19.97zm22 22.01a1.27 1.27 0 01-.27-2.51 12.72 12.72 0 009.67-9.66 1.27 1.27 0 012.48.54 15.26 15.26 0 01-11.6 11.6 1.27 1.27 0 01-.28.03z"/><circle cx="37.29" cy="37.29" r="10.15" fill="#fa7a7b" stroke-miterlimit="10" stroke="#333"/><circle cx="37.29" cy="37.29" r="9.2" fill="#068887" stroke-width=".91" stroke="#fff" stroke-miterlimit="10"/></g></g></g></svg>