<svg xmlns="http://www.w3.org/2000/svg" viewBox="0 0 74.58 74.58"><defs><style>.cls-1,.cls-2{fill:#fff;}.cls-1,.cls-4{stroke:#333;}.cls-1,.cls-3,.cls-4,.cls-5{stroke-miterlimit:10;}.cls-3{fill:#333;}.cls-3,.cls-5{stroke:#fff;}.cls-4{fill:#fa7a7b;}.cls-5{fill:#068887;stroke-width:0.91px;}</style></defs><title>music (3)@4xу</title><g id="Слой_2" data-name="Слой 2"><g id="Слой_1-2" data-name="Слой 1"><g id="music"><path class="cls-1" d="M37.29.5A36.79,36.79,0,1,0,74.08,37.29,36.79,36.79,0,0,0,37.29.5Zm0,45.77a9,9,0,1,1,9-9A9,9,0,0,1,37.29,46.27Z"/><circle class="cls-2" cx="37.29" cy="37.29" r="11.43"/><path class="cls-3" d="M14.85,31.23l-.29,0a1.26,1.26,0,0,1-.94-1.52A21.45,21.45,0,0,1,29.68,13.62a1.27,1.27,0,1,1,.57,2.47A18.9,18.9,0,0,0,16.09,30.25,1.27,1.27,0,0,1,14.85,31.23Z"/><path class="cls-3" d="M44.62,61a1.27,1.27,0,0,1-.29-2.5A18.93,18.93,0,0,0,58.49,44.33a1.27,1.27,0,1,1,2.47.58A21.49,21.49,0,0,1,44.9,61,1.33,1.33,0,0,1,44.62,61Z"/><path class="cls-3" d="M21,32.87l-.28,0a1.27,1.27,0,0,1-1-1.51,15.21,15.21,0,0,1,11.59-11.6,1.27,1.27,0,0,1,.55,2.47,12.72,12.72,0,0,0-9.67,9.67A1.26,1.26,0,0,1,21,32.87Z"/><path class="cls-3" d="M43,54.88a1.27,1.27,0,0,1-.27-2.51,12.72,12.72,0,0,0,9.67-9.66,1.27,1.27,0,0,1,2.48.54,15.26,15.26,0,0,1-11.6,11.6A1.27,1.27,0,0,1,43,54.88Z"/><circle class="cls-4" cx="37.29" cy="37.29" r="10.15"/><circle class="cls-5" cx="37.29" cy="37.29" r="9.2"/></g></g></g></svg>