<svg xmlns="http://www.w3.org/2000/svg" viewBox="0 0 62.11 69.3"><defs><style>.cls-3,.cls-5{stroke-miterlimit:10;fill:none;stroke:#333}.cls-5{fill:#fff}</style></defs><g id="Слой_2" data-name="Слой 2"><g id="Слой_1-2" data-name="Слой 1"><g id="store"><path d="M48.18 10.24l-12.77-.63a1.14 1.14 0 01-1-.69l-.84-2.08a1.09 1.09 0 01.62-1.42l10.08-4a1.12 1.12 0 011.32.38L50 7.87a1.09 1.09 0 01-.25 1.54l-.88.62a1.09 1.09 0 01-.69.21z" stroke-width=".88" stroke-miterlimit="10" stroke="#fff" fill="#068887"/><path d="M17.62 10.48l-.41-.79A1.26 1.26 0 0117.76 8L28 2.76a1.25 1.25 0 011.34.12l6.62 5.06a1.26 1.26 0 01.24 1.77l-.64.83a1.26 1.26 0 01-1 .5l-15.77.13a1.27 1.27 0 01-1.17-.69z" fill="#fa7a7b" stroke-miterlimit="10" stroke="#fff"/><path class="cls-3" d="M48.75 10.7l-14.5-.7a1.28 1.28 0 01-1.11-.79l-1-2.38a1.26 1.26 0 01.7-1.64l11.5-4.6a1.24 1.24 0 011.49.41l5 7a1.26 1.26 0 01-.29 1.76l-1 .72a1.25 1.25 0 01-.79.22z"/><path d="M18.71 10.69l-.36-.69a1.19 1.19 0 01.48-1.58l9.05-4.89a1.1 1.1 0 011.19.11L35 8.32a1.22 1.22 0 01.16 1.68l-.57.78a1.08 1.08 0 01-.88.46l-14 .12a1.09 1.09 0 01-1-.67z" stroke-width=".91" stroke-miterlimit="10" stroke="#fff" fill="#068887"/><path class="cls-3" d="M17.62 10.48l-.41-.79A1.26 1.26 0 0117.76 8L28 2.76a1.25 1.25 0 011.34.12l6.62 5.06a1.26 1.26 0 01.24 1.77l-.64.83a1.26 1.26 0 01-1 .5l-15.77.13a1.27 1.27 0 01-1.17-.69z"/><path class="cls-5" d="M59.35 68.8H2.76a2.26 2.26 0 01-2.25-2.49L6.3 10.63a2.25 2.25 0 012.24-2h45a2.26 2.26 0 012.25 2l.83 8 5 47.66a2.25 2.25 0 01-2.27 2.51z"/><circle cx="42.02" cy="20.31" r="2.4" stroke-width=".97" fill="none" stroke-miterlimit="10" stroke="#fff"/><circle cx="20.09" cy="20.31" r="2.38" stroke-width=".96" fill="none" stroke-miterlimit="10" stroke="#fff"/><path d="M31.1 44.08A12.09 12.09 0 0119 32v-7.8a1.42 1.42 0 012.84 0V32a9.24 9.24 0 0018.47 0v-7.25a1.46 1.46 0 01-.11-.55 1.42 1.42 0 011.42-1.42h.11a1.41 1.41 0 011.42 1.42V32A12.08 12.08 0 0131.1 44.08z" fill="#333" stroke-width="1.5" stroke-miterlimit="10" stroke="#fff"/><circle class="cls-5" cx="41.75" cy="22.78" r="2.84"/><circle class="cls-5" cx="20.44" cy="22.78" r="2.84"/></g></g></g></svg>