<svg xmlns="http://www.w3.org/2000/svg" viewBox="0 0 70.65 75.57"><g data-name="Слой 2"><g data-name="Слой 1"><circle cx="33.92" cy="33.92" r="33.42" stroke-miterlimit="10" stroke="#333" fill="#fff"/><path stroke-linecap="round" stroke-linejoin="round" stroke="#333" fill="#fff" d="M54.95 59.88l15.2 15.19"/><path d="M38.15 33.53a8.55 8.55 0 10-8.46 0 15.5 15.5 0 00-11.27 14.9h31a15.51 15.51 0 00-11.27-14.9z" fill="#068887"/><path d="M38.15 33.53a8.55 8.55 0 10-8.46 0 15.5 15.5 0 00-11.27 14.9h31a15.51 15.51 0 00-11.27-14.9z" stroke="#fff" stroke-width="2.5" fill="none" stroke-miterlimit="10"/><path d="M38.15 33.53a8.55 8.55 0 10-8.46 0 15.5 15.5 0 00-11.27 14.9h31a15.51 15.51 0 00-11.27-14.9z" stroke-width=".75" fill="none" stroke-miterlimit="10" stroke="#333"/></g></g></svg>