<svg xmlns="http://www.w3.org/2000/svg" viewBox="0 0 54.27 69.66"><defs><style>.cls-1,.cls-2{fill:#fff;stroke:#333}.cls-1{stroke-miterlimit:10}.cls-2{stroke-linecap:round;stroke-linejoin:round}</style></defs><g id="Слой_2" data-name="Слой 2"><g id="Слой_1-2" data-name="Слой 1"><g id="articles"><path class="cls-1" d="M53.77 17.07L37.2.5H2.47a2 2 0 00-2 2v64.62a2 2 0 002 2h51.3z"/><path class="cls-2" d="M7.01 27.51h38.84m-38.84 6h38.84m-38.84 6h38.84m-38.84 6h38.84m-38.84 6h38.84m-38.84 6h38.84"/><path d="M37.2.5v14.67a1.9 1.9 0 001.9 1.9h14.67" fill="#fa7a7b" stroke-miterlimit="10" stroke="#333"/><path d="M37.92 1.5v13.13a1.7 1.7 0 001.7 1.7h13.12" fill="#068887" stroke="#fff" stroke-width=".89" stroke-miterlimit="10"/><path class="cls-1" d="M53.77 17.07L37.2.5"/><circle class="cls-1" cx="11.64" cy="14.62" r="4.63"/><path class="cls-2" d="M14.56 18.22l2.1 2.1"/></g></g></g></svg>