<svg xmlns="http://www.w3.org/2000/svg" viewBox="0 0 59.38 67.5"><g data-name="Слой 2"><g data-name="Слой 1"><path d="M58.68 26.33a29.26 29.26 0 01-29 32.55 21.89 21.89 0 01-6.46-.88L10 67a.19.19 0 01-.3-.19l2-13.94a29.23 29.23 0 1146.92-26.5z" stroke-miterlimit="10" stroke="#333" fill="#fff"/><path d="M29.69 39.89a2 2 0 01-2.09-2.08v-6.88a2 2 0 012.09-2.09 5.21 5.21 0 10-5.21-5.21 2 2 0 01-2.09 2.09 2 2 0 01-2.08-2.09 9.38 9.38 0 1118.76 0 9.57 9.57 0 01-7.3 9.17v5a2.08 2.08 0 01-2.08 2.09z" stroke="#fff" stroke-width="2.11" stroke-miterlimit="10"/><path d="M29.69 47.49A2.55 2.55 0 1132.24 45a2.55 2.55 0 01-2.55 2.49z" fill="#068887"/><path d="M29.69 43a1.92 1.92 0 11-1.92 2 1.92 1.92 0 011.92-2m0-1.26A3.18 3.18 0 1032.87 45a3.18 3.18 0 00-3.18-3.18z" fill="#fff"/><circle cx="29.69" cy="44.95" r="3.18" fill="none" stroke-miterlimit="10" stroke="#333"/></g></g></svg>