<svg xmlns="http://www.w3.org/2000/svg" viewBox="0 0 24.37 21.73"><defs><style>.cls-1{fill:#4d4d4d;stroke:#fff;stroke-miterlimit:10;stroke-width:0.38px;}</style></defs><title>favor@4xу</title><g id="Слой_2" data-name="Слой 2"><g id="Слой_1-2" data-name="Слой 1"><g id="favor"><g id="Capa_1" data-name="Capa 1"><path class="cls-1" d="M12.19,21.54a1.45,1.45,0,0,1-.93-.35c-1-.85-1.9-1.65-2.73-2.35h0a51.19,51.19,0,0,1-6-5.59A9,9,0,0,1,.19,7.4a7.55,7.55,0,0,1,1.9-5.12A6.48,6.48,0,0,1,6.89.19a6,6,0,0,1,3.77,1.3,7.69,7.69,0,0,1,1.53,1.59,7.9,7.9,0,0,1,1.52-1.59A6.07,6.07,0,0,1,17.48.19a6.48,6.48,0,0,1,4.8,2.09,7.45,7.45,0,0,1,1.9,5.12,8.88,8.88,0,0,1-2.38,5.85,50.41,50.41,0,0,1-6,5.59c-.83.7-1.76,1.5-2.74,2.35A1.4,1.4,0,0,1,12.19,21.54ZM6.89,1.6A5.06,5.06,0,0,0,3.13,3.23,6.1,6.1,0,0,0,1.6,7.4a7.48,7.48,0,0,0,2.05,4.95,50.28,50.28,0,0,0,5.79,5.42h0l2.75,2.36,2.75-2.36a49.38,49.38,0,0,0,5.78-5.42A7.54,7.54,0,0,0,22.78,7.4a6.05,6.05,0,0,0-1.53-4.17A5.08,5.08,0,0,0,17.48,1.6a4.73,4.73,0,0,0-2.91,1A6.93,6.93,0,0,0,13,4.48a.89.89,0,0,1-1.52,0A7,7,0,0,0,9.8,2.6,4.59,4.59,0,0,0,6.89,1.6Z"/></g></g></g></g></svg>