<svg xmlns="http://www.w3.org/2000/svg" viewBox="0 0 24.69 21.76"><defs><style>.cls-1{fill:#4d4d4d;stroke:#fff;stroke-miterlimit:10;stroke-width:.4px}</style></defs><g id="Слой_2" data-name="Слой 2"><g id="Слой_1-2" data-name="Слой 1"><g id="cart"><g id="Capa_1" data-name="Capa 1"><path class="cls-1" d="M8 14.43h12.9a.71.71 0 00.68-.51L24.46 4a.7.7 0 00-.46-.87.76.76 0 00-.21 0H6.38L5.88.76a.71.71 0 00-.7-.56H.91a.71.71 0 000 1.42h3.7C4.7 2 7 12.58 7.18 13.18a2.14 2.14 0 00.82 4.1h12.9a.72.72 0 000-1.43H8a.71.71 0 010-1.42zm14.8-10L20.39 13H8.6L6.7 4.47zM7.32 19.41a2.14 2.14 0 102.15-2.13 2.13 2.13 0 00-2.13 2.13zm2.13-.71a.71.71 0 11-.71.71.71.71 0 01.71-.71z"/><path class="cls-1" d="M17.37 19.41a2.14 2.14 0 102.15-2.13 2.14 2.14 0 00-2.15 2.13zm2.14-.71a.71.71 0 11-.71.71.71.71 0 01.71-.71z"/></g></g></g></g></svg>