<svg xmlns="http://www.w3.org/2000/svg" viewBox="0 0 24.92 22.75"><g data-name="Слой 2"><g data-name="Слой 1"><path d="M12.42 13.3a6.49 6.49 0 10-6.49-6.5 6.49 6.49 0 006.49 6.5zm0-11.3a4.78 4.78 0 11-4.78 4.8A4.79 4.79 0 0112.42 2zM1.19 22.42h22.54a.85.85 0 00.86-.86 8.15 8.15 0 00-8.15-8.14h-8a8.15 8.15 0 00-8.11 8.14.85.85 0 00.86.86zm7.29-7.29h8a6.43 6.43 0 016.38 5.58H2.1a6.45 6.45 0 016.38-5.58z" fill="#4d4d4d" stroke="#fff" stroke-miterlimit="10" stroke-width=".66" data-name="log in"/></g></g></svg>