<svg xmlns="http://www.w3.org/2000/svg" viewBox="0 0 31 31"><defs><style>.cls-1{fill:#fa7a7b;}.cls-2{fill:#fff;}</style></defs><title>Wedding Venture Top Pick1</title><g id="Layer_2" data-name="Layer 2"><g id="Слой_1" data-name="Слой 1"><g id="Wedding_Venture_Top_Pick" data-name="Wedding Venture Top Pick"><circle class="cls-1" cx="15.5" cy="15.5" r="15.5"/><path class="cls-2" d="M23.66,10.59A.94.94,0,0,0,23,10.3H20.05v-1A1.64,1.64,0,0,0,18.42,7.7H12.58A1.64,1.64,0,0,0,11,9.33v1H8a1,1,0,0,0-1,1v1.3A2.9,2.9,0,0,0,7.47,14a4.72,4.72,0,0,0,1.14,1.32,6.42,6.42,0,0,0,1.76,1,6.68,6.68,0,0,0,2.19.45,4.85,4.85,0,0,0,1,1,1.89,1.89,0,0,1,.53.74,2.52,2.52,0,0,1,.15.91,1.38,1.38,0,0,1-.31.92,1.22,1.22,0,0,1-1,.38,2.1,2.1,0,0,0-1.35.46,1.42,1.42,0,0,0-.6,1.16V23a.31.31,0,0,0,.33.33h8.44a.31.31,0,0,0,.33-.33v-.65a1.42,1.42,0,0,0-.6-1.16,2.1,2.1,0,0,0-1.35-.46,1.22,1.22,0,0,1-1-.38,1.38,1.38,0,0,1-.31-.92,2.52,2.52,0,0,1,.15-.91,1.89,1.89,0,0,1,.53-.74,5.13,5.13,0,0,0,1-1,6.68,6.68,0,0,0,2.19-.45,6.42,6.42,0,0,0,1.76-1A4.72,4.72,0,0,0,23.53,14,2.9,2.9,0,0,0,24,12.58v-1.3A.94.94,0,0,0,23.66,10.59ZM9.31,14.22a2.34,2.34,0,0,1-1-1.64v-1H11a9,9,0,0,0,.75,3.77A5.09,5.09,0,0,1,9.31,14.22Zm13.34-1.64a2.34,2.34,0,0,1-1,1.64,5.09,5.09,0,0,1-2.39,1.15,9,9,0,0,0,.75-3.77h2.6v1Z"/></g></g></g></svg>