<svg xmlns="http://www.w3.org/2000/svg" viewBox="0 0 31 31"><defs><style>.cls-1{fill:#fa7a7b;}.cls-2{fill:#fff;}</style></defs><title>Wedding Venture resident expert1</title><g id="Layer_2" data-name="Layer 2"><g id="Слой_1" data-name="Слой 1"><g id="Wedding_Venture_resident_expert" data-name="Wedding Venture resident expert"><circle class="cls-1" cx="15.5" cy="15.5" r="15.5"/><path class="cls-2" d="M21.89,20.45l-4.55-7.87V8.19h.92V7.27H12.74v.92h.92v4.39L9.11,20.45a1.63,1.63,0,0,0,0,1.68,1.66,1.66,0,0,0,1.46.85h9.86a1.66,1.66,0,0,0,1.46-.85A1.63,1.63,0,0,0,21.89,20.45Zm-9.61-1.8a.61.61,0,0,1,.61-.61.61.61,0,0,1,.62.61.62.62,0,0,1-.62.62A.61.61,0,0,1,12.28,18.65Zm1.23,2.46a.62.62,0,0,1-.62-.62.62.62,0,0,1,1.23,0A.62.62,0,0,1,13.51,21.11Zm2.76-1.38a.92.92,0,1,1,.92-.92A.92.92,0,0,1,16.27,19.73ZM13,15.61l1.61-2.79V8.19h1.84v4.63L18,15.61ZM19,21.11a.61.61,0,0,1-.61-.62.61.61,0,1,1,1.22,0A.61.61,0,0,1,19,21.11Z"/></g></g></g></svg>