<svg xmlns="http://www.w3.org/2000/svg" viewBox="0 0 31 31"><defs><style>.cls-1{fill:#fa7a7b;}.cls-2{fill:#fff;}</style></defs><title>Answered top questions from users1</title><g id="Layer_2" data-name="Layer 2"><g id="Слой_1" data-name="Слой 1"><g id="Answered_top_questions_from_users" data-name="Answered top questions from users"><circle class="cls-1" cx="15.5" cy="15.5" r="15.5"/><path class="cls-2" d="M15.5,7.59a7.91,7.91,0,1,0,7.91,7.91A7.92,7.92,0,0,0,15.5,7.59Zm.61,12.48a.61.61,0,0,1-1.22,0v-.61a.61.61,0,0,1,1.22,0Zm.87-5a2,2,0,0,0-.87,1.71v.86a.61.61,0,0,1-1.22,0v-.86A3.23,3.23,0,0,1,16.32,14a1.5,1.5,0,0,0,.7-1.3,1.55,1.55,0,0,0-1.5-1.5,1.45,1.45,0,0,0-1.09.44A1.51,1.51,0,0,0,14,12.76a.61.61,0,0,1-1.22,0A2.75,2.75,0,0,1,15.5,10h0a2.75,2.75,0,0,1,2.7,2.7A2.73,2.73,0,0,1,17,15.06Z"/></g></g></g></svg>