<svg xmlns="http://www.w3.org/2000/svg" viewBox="0 0 31 31"><defs><style>.cls-1{fill:#fa7a7b;}.cls-2{fill:#fff;}</style></defs><title>Popular! Likely to be booked first1</title><g id="Layer_2" data-name="Layer 2"><g id="Слой_1" data-name="Слой 1"><g id="Popular_Likely_to_be_booked_first" data-name="Popular! Likely to be booked first"><circle class="cls-1" cx="15.5" cy="15.5" r="15.5"/><path class="cls-2" d="M19.42,10.7a.54.54,0,0,0-1,.28A1.19,1.19,0,1,1,16,11V6.47a.54.54,0,0,0-.92-.38,25.59,25.59,0,0,0-2.95,3.69,20.47,20.47,0,0,0-2,3.79A12.1,12.1,0,0,0,9.19,18a6.31,6.31,0,0,0,12.62,0A14.35,14.35,0,0,0,19.42,10.7Zm-.33,7.17a.54.54,0,1,1-1.07,0v-1l-2.69,2.68a.53.53,0,0,1-.38.16.55.55,0,0,1-.38-.16l-1.25-1.25-.84.85a.54.54,0,0,1-.76,0,.55.55,0,0,1,0-.77l1.22-1.22a.54.54,0,0,1,.76,0L15,18.4l2.31-2.3h-1a.54.54,0,0,1,0-1.08h2.31a.54.54,0,0,1,.53.54v2.31Z"/></g></g></g></svg>