<svg xmlns="http://www.w3.org/2000/svg" viewBox="0 0 31 31"><defs><style>.cls-1{fill:#fa7a7b;}.cls-2{fill:#fff;}</style></defs><title>highly rated1</title><g id="Layer_2" data-name="Layer 2"><g id="Слой_1" data-name="Слой 1"><g id="highly_rated" data-name="highly rated"><circle class="cls-1" cx="15.5" cy="15.5" r="15.5"/><path class="cls-2" d="M23.1,14.79a1.14,1.14,0,0,0-.63-1.95l-3.85-.55a.52.52,0,0,1-.38-.28L16.52,8.53a1.13,1.13,0,0,0-2,0L12.76,12a.52.52,0,0,1-.38.28l-3.85.55a1.14,1.14,0,0,0-.63,1.95l2.78,2.71a.5.5,0,0,1,.15.45l-.66,3.83a1.14,1.14,0,0,0,.25.92,1.16,1.16,0,0,0,1.41.28l3.44-1.81a.47.47,0,0,1,.46,0L19.17,23a1.12,1.12,0,0,0,.53.13,1.15,1.15,0,0,0,.88-.41,1.1,1.1,0,0,0,.25-.92L20.17,18a.5.5,0,0,1,.15-.45Z"/></g></g></g></svg>