<svg xmlns="http://www.w3.org/2000/svg" viewBox="0 0 15.86 17.54"><defs><style>.cls-1{stroke:#fff;stroke-miterlimit:10;stroke-width:0.35px;}</style></defs><title>Live music and bands@4xу</title><g id="Слой_2" data-name="Слой 2"><g id="icons"><g id="Live_music_and_bands" data-name="Live music and bands"><path class="cls-1" d="M15.68,4V.66a.5.5,0,0,0-.2-.39A.47.47,0,0,0,15.05.2L5.22,3.32a.48.48,0,0,0-.34.46V7.09h0V13.4A3.37,3.37,0,0,0,3,12.85a3.24,3.24,0,0,0-1.95.62,2,2,0,0,0,0,3.28A3.3,3.3,0,0,0,3,17.36a3.31,3.31,0,0,0,2-.61,2,2,0,0,0,.88-1.64V7.44l8.86-2.81v5.64a3.44,3.44,0,0,0-3.82.06,2,2,0,0,0,0,3.28,3.39,3.39,0,0,0,3.91,0A2,2,0,0,0,15.68,12V4ZM3,16.39c-1,0-1.86-.59-1.86-1.28S2,13.83,3,13.83s1.87.58,1.87,1.28S4,16.39,3,16.39Zm2.84-10V4.14l8.86-2.82V3.61Zm7,6.83c-1,0-1.87-.58-1.87-1.28s.85-1.28,1.87-1.28,1.86.59,1.86,1.28S13.85,13.25,12.85,13.25Z"/></g></g></g></svg>