<svg xmlns="http://www.w3.org/2000/svg" viewBox="0 0 13.97 17.46"><title>Bartenders and waiters (2)@4xу</title><g id="Слой_2" data-name="Слой 2"><g id="icons"><g id="Bartenders_and_waiters" data-name="Bartenders and waiters"><path d="M4.83,5.36a5.25,5.25,0,0,1-.46-2.21V1.75a.29.29,0,0,0,.29-.29V.29A.29.29,0,0,0,4.37,0H2a.29.29,0,0,0-.29.29V1.46A.29.29,0,0,0,2,1.75v1.4a5.41,5.41,0,0,1-.47,2.21L.76,7.23A9,9,0,0,0,0,10.85v6.32a.29.29,0,0,0,.29.29H6.11a.29.29,0,0,0,.29-.29V10.85a9,9,0,0,0-.75-3.62ZM2.33.58H4.07v.58H2.33Zm3.49,16.3H.58v-6a8.41,8.41,0,0,1,.71-3.39L2.11,5.6a6.11,6.11,0,0,0,.51-2.45V1.75H3.78v1.4A6.12,6.12,0,0,0,4.3,5.6l.81,1.86a8.41,8.41,0,0,1,.71,3.39Z"/><path d="M13,16.76a3.75,3.75,0,0,0-2-.74v-4.1A3.21,3.21,0,0,0,14,8.73v0l-.16-1.07h0l-.43-3a.28.28,0,0,0-.28-.24H8.44a.28.28,0,0,0-.29.24L7.57,8.69v0a3.21,3.21,0,0,0,2.91,3.19V16a3.72,3.72,0,0,0-2,.74l-.24.18a.28.28,0,0,0-.1.32.29.29,0,0,0,.28.2H13.1a.29.29,0,0,0,.27-.2.28.28,0,0,0-.1-.32ZM8.69,5h4.15l.35,2.44-.56.06a4.82,4.82,0,0,1-1.89-.15h0a5.44,5.44,0,0,0-2.2-.17H8.38Zm-.54,3.8.14-1,.28,0a4.85,4.85,0,0,1,2,.14h0A5.46,5.46,0,0,0,12.7,8L13.27,8l.12.78a2.62,2.62,0,0,1-5.24,0Zm1.29,8.13a3.25,3.25,0,0,1,2.66,0Z"/></g></g></g></svg>