<svg xmlns="http://www.w3.org/2000/svg" viewBox="0 0 16.91 16.91"><defs><style>.cls-1{stroke:#000;stroke-miterlimit:10;stroke-width:0.08px;}</style></defs><title>Cakes bakeries@4xу</title><g id="Слой_2" data-name="Слой 2"><g id="icons"><g id="Cakes_bakeries" data-name="Cakes bakeries"><path class="cls-1" d="M16.87,8.46a1.37,1.37,0,0,0-1.1-1.35,7.14,7.14,0,0,0-.34-2,.14.14,0,0,0,0-.06,7.32,7.32,0,0,0-13.91,0s0,0,0,.06a7.53,7.53,0,0,0-.34,2,1.37,1.37,0,0,0,.05,2.7l1.44,6.85a.27.27,0,0,0,.27.21H14a.27.27,0,0,0,.26-.21l1.45-6.85a1.37,1.37,0,0,0,1.14-1.35ZM8.46.58A6.79,6.79,0,0,1,14.8,5a1.92,1.92,0,0,0-.92.49,1.3,1.3,0,0,1-1,.41A1.31,1.31,0,0,1,12,5.45a1.78,1.78,0,0,0-1.29-.53,1.82,1.82,0,0,0-1.29.53,1.27,1.27,0,0,1-.94.41,1.3,1.3,0,0,1-1-.41,1.83,1.83,0,0,0-2.58,0A1.3,1.3,0,0,1,4,5.86,1.27,1.27,0,0,1,3,5.45,2,2,0,0,0,2.12,5,6.78,6.78,0,0,1,8.46.58ZM13.8,16.34H3.11L1.74,9.82H15.18Zm1.71-7H1.41a.83.83,0,1,1,0-1.66.27.27,0,0,0,.27-.27,6.9,6.9,0,0,1,.26-1.89,1.38,1.38,0,0,1,.75.4A1.82,1.82,0,0,0,4,6.4a1.78,1.78,0,0,0,1.29-.53,1.31,1.31,0,0,1,1.9,0,1.78,1.78,0,0,0,1.29.53,1.82,1.82,0,0,0,1.29-.53,1.27,1.27,0,0,1,.94-.41,1.3,1.3,0,0,1,1,.41,1.83,1.83,0,0,0,2.58,0,1.38,1.38,0,0,1,.75-.4,6.9,6.9,0,0,1,.27,1.89.27.27,0,0,0,.27.27.83.83,0,0,1,0,1.66Z"/></g></g></g></svg>