<svg xmlns="http://www.w3.org/2000/svg" viewBox="0 0 18.59 18.29"><defs><style>.cls-1{fill:#fff;}</style></defs><title>Catering (2)@4xу</title><g id="Слой_2" data-name="Слой 2"><g id="icons"><g id="Catering"><path d="M5.62,18.15V17.2h1.2l.81-2.7H2.51L1.42,12.06H.13v-1H1.27V11A9.5,9.5,0,0,1,3.62,5.21,7.75,7.75,0,0,1,7.84,2.72l.16,0-.07-.15a1.91,1.91,0,0,1-.14-.71A1.61,1.61,0,0,1,9.29.13a1.61,1.61,0,0,1,1.5,1.7,1.73,1.73,0,0,1-.14.71l-.06.15.16,0A7.75,7.75,0,0,1,15,5.21,9.5,9.5,0,0,1,17.31,11v.13h1.13v1H17.17L16.08,14.5H11l.8,2.7H13v.95Zm2.07-.95H10.9l-.81-2.7H8.5ZM3,13.55H15.58l.66-1.49H2.34Zm6.28-10C5.54,3.52,2.39,6.79,2.1,11v.15H16.5V11C16.2,6.79,13,3.52,9.29,3.52Zm0-2.44a.72.72,0,0,0-.68.75.68.68,0,1,0,1.36,0A.72.72,0,0,0,9.29,1.08Z"/><path class="cls-1" d="M9.29.27a1.47,1.47,0,0,1,1.37,1.56,1.85,1.85,0,0,1-.13.66l-.12.3.31.06A7.6,7.6,0,0,1,14.87,5.3,9.32,9.32,0,0,1,17.17,11l0,.25h1.13v.68H17.08l-.07.16-1,2.28H10.78l.1.35.73,2.44.05.19h1.18V18H5.75v-.68H6.92L7,17.15l.73-2.44.1-.35H2.6l-1-2.28-.07-.16H.27v-.68H1.4V11A9.39,9.39,0,0,1,3.72,5.3,7.57,7.57,0,0,1,7.86,2.85l.32-.06-.12-.3a1.65,1.65,0,0,1-.13-.66A1.47,1.47,0,0,1,9.29.27m0,2.44a.86.86,0,0,0,.82-.88.82.82,0,1,0-1.63,0,.85.85,0,0,0,.81.88M2,11.24H16.64l0-.29c-.29-4.24-3.51-7.56-7.33-7.56S2.26,6.71,2,11l0,.29m1,2.44H15.67l.07-.16.54-1.22.17-.38H2.13l.17.38.55,1.22.07.16m4.59,3.66h3.57L11,17l-.73-2.44-.06-.19H8.4l-.06.19L7.61,17l-.1.35M9.29,0A1.74,1.74,0,0,0,7.66,1.83a1.91,1.91,0,0,0,.15.76A7.82,7.82,0,0,0,3.52,5.12,9.55,9.55,0,0,0,1.14,11H0v1.22H1.33l1.09,2.44h5l-.73,2.44H5.48v1.22h7.63V17.07H11.86l-.72-2.44h5l1.09-2.44h1.34V11H17.44a9.6,9.6,0,0,0-2.37-5.85,7.86,7.86,0,0,0-4.29-2.53,2.1,2.1,0,0,0,.15-.76A1.75,1.75,0,0,0,9.29,0Zm0,2.44a.58.58,0,0,1-.54-.61.58.58,0,0,1,.54-.61.58.58,0,0,1,.55.61.59.59,0,0,1-.55.61ZM2.24,11c.27-4.08,3.33-7.31,7-7.31S16.07,6.89,16.35,11Zm.86,2.44-.55-1.22H16l-.55,1.22Zm4.77,3.66.73-2.44H10l.73,2.44Z"/></g></g></g></svg>