<svg xmlns="http://www.w3.org/2000/svg" viewBox="0 0 15.39 17.76"><title>Decorations@4xу</title><g id="Слой_2" data-name="Слой 2"><g id="icons"><g id="Decorations"><path d="M10.65,2.37h0a4.12,4.12,0,0,0-1.73.38A4.75,4.75,0,0,0,4.74,0,5,5,0,0,0,0,5c0,2.32,1.59,5.47,3.68,6.3l-.12.76a.3.3,0,0,0,.06.24.33.33,0,0,0,.23.1h.48L4.14,13a2,2,0,0,0,.24,1.81l.22.33a1.44,1.44,0,0,1,.17,1.29l-.31.95a.3.3,0,0,0,.18.38A.31.31,0,0,0,5,17.56l.31-.95a2,2,0,0,0-.24-1.81l-.22-.33a1.48,1.48,0,0,1-.17-1.29L5,12.43h.67a.33.33,0,0,0,.23-.1.31.31,0,0,0,.07-.24l-.13-.76a3.88,3.88,0,0,0,1-.59,6,6,0,0,0,2.81,3l-.12.76a.3.3,0,0,0,.06.24.33.33,0,0,0,.23.1h.48l-.19.56a2,2,0,0,0,.24,1.81l.22.33.07.11a.3.3,0,0,0,.26.15.25.25,0,0,0,.14,0,.3.3,0,0,0,.12-.4,1.3,1.3,0,0,0-.1-.15l-.22-.33a1.48,1.48,0,0,1-.17-1.29l.25-.75h.67a.33.33,0,0,0,.23-.1.31.31,0,0,0,.07-.24l-.13-.75a5.19,5.19,0,0,0,2.34-2.13,8.24,8.24,0,0,0,1.34-4.19A5,5,0,0,0,10.65,2.37ZM.59,5A4.42,4.42,0,0,1,4.74.59,4.21,4.21,0,0,1,8.5,3.25,4.38,4.38,0,0,1,8.88,5c0,.22,0,.44,0,.65s-.09.52-.15.77a7.75,7.75,0,0,1-2,3.6,3.4,3.4,0,0,1-1.32.81,2.18,2.18,0,0,1-1,.07l-.32-.07C2.16,10.27.59,7.19.59,5ZM4.2,11.84l0-.34h.12l.36,0h0l.36,0h.12l0,.34Zm7,2.37H10.12l.05-.34h.19l.3,0h0a2.59,2.59,0,0,0,.48,0Zm2.36-3a4.45,4.45,0,0,1-2.27,2c-.1,0-.19,0-.29.06h0a1.94,1.94,0,0,1-.59,0l-.08,0-.24,0a5.23,5.23,0,0,1-2.79-2.9l0-.06.11-.12L7.54,10l.1-.13a1,1,0,0,0,.13-.16l.1-.14L8,9.42l.09-.15a1,1,0,0,0,.11-.17L8.29,9l.1-.18.09-.16.09-.18a1.3,1.3,0,0,0,.08-.17l.09-.19c0-.05,0-.11.08-.16s0-.13.07-.2A.87.87,0,0,0,9,7.54,1.46,1.46,0,0,0,9,7.35l.06-.17L9.15,7a1.09,1.09,0,0,0,0-.17l.06-.2c0-.05,0-.11,0-.16s0-.14,0-.21l0-.16a1.55,1.55,0,0,0,0-.21.77.77,0,0,1,0-.15c0-.07,0-.15,0-.23s0-.08,0-.12,0-.23,0-.34,0-.32,0-.48a.78.78,0,0,1,0-.16c0-.1,0-.21,0-.32s0-.12-.05-.18-.05-.19-.07-.29L9.2,3.41s0-.09,0-.13A3.67,3.67,0,0,1,10.65,3h0A4.41,4.41,0,0,1,14.8,7.39,7.62,7.62,0,0,1,13.55,11.26Z"/></g></g></g></svg>