<svg xmlns="http://www.w3.org/2000/svg" viewBox="0 0 17.38 17.38"><defs><style>.cls-1{stroke:#fff;stroke-miterlimit:10;stroke-width:0.35px;}</style></defs><title>Event DJs@4xу</title><g id="Слой_2" data-name="Слой 2"><g id="icons"><g id="Event_DJs" data-name="Event DJs"><path class="cls-1" d="M8.69,6.2a2.5,2.5,0,1,0,2.5,2.49A2.48,2.48,0,0,0,8.69,6.2Zm0,4a1.5,1.5,0,1,1,1.5-1.5A1.5,1.5,0,0,1,8.69,10.19Z"/><path class="cls-1" d="M9.19,8.69a.5.5,0,1,1-.5-.5A.5.5,0,0,1,9.19,8.69Z"/><path class="cls-1" d="M8.69,5.2a.5.5,0,0,0,.5-.5.5.5,0,0,0-.5-.5A4.49,4.49,0,0,0,4.2,8.69a.5.5,0,0,0,.5.5.5.5,0,0,0,.5-.5A3.49,3.49,0,0,1,8.69,5.2Z"/><path class="cls-1" d="M8.69,3.2a.5.5,0,0,0,.5-.5.5.5,0,0,0-.5-.5A6.5,6.5,0,0,0,2.2,8.69a.5.5,0,0,0,.5.5.5.5,0,0,0,.5-.5A5.49,5.49,0,0,1,8.69,3.2Z"/><path class="cls-1" d="M14.71,2.67a8.52,8.52,0,0,0-14.54,6,8.54,8.54,0,0,0,8.52,8.52,8.51,8.51,0,0,0,6-14.54ZM14,14A7.52,7.52,0,0,1,3.37,3.37,7.52,7.52,0,0,1,14,14Z"/></g></g></g></svg>