<svg xmlns="http://www.w3.org/2000/svg" viewBox="0 0 15.84 18.32"><defs><style>.cls-1{stroke:#fff;stroke-miterlimit:10;stroke-width:0.72px;}</style></defs><title>First dance instructors (2)@4xу</title><g id="Слой_2" data-name="Слой 2"><g id="icons"><g id="First_dance_instructors" data-name="First dance instructors"><path class="cls-1" d="M7.92.36A7.49,7.49,0,0,0,.36,7.78a7.34,7.34,0,0,0,3.06,6v3.54a.69.69,0,0,0,.41.63.68.68,0,0,0,.74-.13l2.82-2.59.53,0a7.49,7.49,0,0,0,7.56-7.42A7.49,7.49,0,0,0,7.92.36Zm0,13.46a5.58,5.58,0,0,1-.7,0,.73.73,0,0,0-.54.18L4.79,15.7V13.37a.69.69,0,0,0-.31-.57,6,6,0,0,1-2.74-5,6.12,6.12,0,0,1,6.18-6,6.13,6.13,0,0,1,6.19,6A6.13,6.13,0,0,1,7.92,13.82Z"/><path class="cls-1" d="M8.26,3.76H5.86a.69.69,0,0,0-.69.69.68.68,0,0,0,.69.68h2.4a1,1,0,1,1,0,2.07H7.58a.68.68,0,0,0-.69.68v1a.69.69,0,0,0,.69.69.68.68,0,0,0,.68-.69v-.3a2.41,2.41,0,1,0,0-4.81Z"/><circle class="cls-1" cx="7.58" cy="11.33" r="0.93"/></g></g></g></svg>