<svg xmlns="http://www.w3.org/2000/svg" viewBox="0 0 17.41 17.41"><defs><style>.cls-1{stroke:#fff;stroke-miterlimit:10;stroke-width:0.4px;}</style></defs><title>Florist@4xу</title><g id="Слой_2" data-name="Слой 2"><g id="icons"><g id="Florist"><path class="cls-1" d="M17,6.4a3.48,3.48,0,0,0-4.39-2.24,4.26,4.26,0,0,0-.73.32A4.41,4.41,0,0,0,12,3.69,3.3,3.3,0,0,0,8.74.2,3.35,3.35,0,0,0,5.42,3.69a3.65,3.65,0,0,0,.08.79,4.63,4.63,0,0,0-.73-.32A3.49,3.49,0,0,0,.37,6.4a3.62,3.62,0,0,0,2.24,4.51,3.85,3.85,0,0,0,.78.17,4.78,4.78,0,0,0-.53.59,3.49,3.49,0,0,0,.77,4.87,3.29,3.29,0,0,0,4.71-.77,3.29,3.29,0,0,0,.4-.69,3.79,3.79,0,0,0,.4.69,3.21,3.21,0,0,0,4.64.77,3.49,3.49,0,0,0,.77-4.87,4.09,4.09,0,0,0-.53-.59,3.71,3.71,0,0,0,.78-.17A3.61,3.61,0,0,0,17,6.4ZM8.74,1.2A2.3,2.3,0,0,1,11,3.69a4.29,4.29,0,0,1-.68,2.14.54.54,0,0,0-.07.27L9.73,7a2.21,2.21,0,0,0-.5-.15v-2a.49.49,0,0,0-.49-.5.51.51,0,0,0-.5.5V6.85A2,2,0,0,0,7.75,7l-.58-.94a.49.49,0,0,0-.08-.23,4.39,4.39,0,0,1-.68-2.14A2.36,2.36,0,0,1,8.74,1.2ZM2.92,10a2.62,2.62,0,0,1-1.6-3.25,2.49,2.49,0,0,1,3.14-1.6A4.05,4.05,0,0,1,6.07,6.18l.86,1.4a2,2,0,0,0-.35.48L4.63,7.43A.5.5,0,0,0,4,7.75a.51.51,0,0,0,.32.63L6.27,9a2.18,2.18,0,0,0,0,.57L5,10A4.21,4.21,0,0,1,2.92,10Zm5.32,3.11a4.34,4.34,0,0,1-.7,2.12,2.32,2.32,0,0,1-3.32.55,2.49,2.49,0,0,1-.55-3.48,4.79,4.79,0,0,1,1.89-1.38l1-.36A2.83,2.83,0,0,0,6.9,11L5.7,12.62a.5.5,0,0,0,.81.59l1.2-1.66a2.55,2.55,0,0,0,.53.18v1.34Zm.5-2.29a1.5,1.5,0,1,1,1.5-1.49A1.49,1.49,0,0,1,8.74,10.78Zm4.46,5A2.23,2.23,0,0,1,10,15.19a4.45,4.45,0,0,1-.72-2.12V11.73a2.45,2.45,0,0,0,.54-.18L11,13.21a.5.5,0,0,0,.69.11.51.51,0,0,0,.11-.7L10.58,11a2.75,2.75,0,0,0,.32-.44l.93.33a5,5,0,0,1,1.92,1.4A2.49,2.49,0,0,1,13.2,15.74ZM12.43,10l-1.21-.44a2.71,2.71,0,0,0,0-.57l1.94-.63a.5.5,0,0,0,.32-.63.49.49,0,0,0-.63-.32l-1.94.63a2.47,2.47,0,0,0-.36-.49l.82-1.42a4.16,4.16,0,0,1,1.58-1,2.48,2.48,0,0,1,3.14,1.6A2.62,2.62,0,0,1,14.49,10h0A4.16,4.16,0,0,1,12.43,10Z"/></g></g></g></svg>