<svg xmlns="http://www.w3.org/2000/svg" viewBox="0 0 17.06 15.52"><title>Hair and make-up@4xу</title><g id="Слой_2" data-name="Слой 2"><g id="icons"><path id="Hair_and_make-up" data-name="Hair and make-up" d="M16.8,1.18a.63.63,0,0,0-.56-.11l-3,.77L5.9.17A4.85,4.85,0,0,0,4.64,0,4.63,4.63,0,0,0,1.71,8.23l.12.64.79,4.3a1,1,0,0,1,0,.43l-.24,1.06a.73.73,0,0,0,.14.59.72.72,0,0,0,.55.27H5.92a.67.67,0,0,0,.56-.28.69.69,0,0,0,.12-.62L6.29,13.5a1,1,0,0,1,0-.29V12.08h.48a.78.78,0,0,0,.78-.78v-1a.78.78,0,0,0-.78-.77H6.25V9l2.28-.52c.13,0-.15,0-.18-.17S8.56,8,8.42,8l-2.64.6h0a4,4,0,0,1-1.13.16A4.14,4.14,0,0,1,4.64.5,4,4,0,0,1,5.77.66h0L13,2.3V7L8.33,8a.26.26,0,0,0-.19.3.25.25,0,0,0,.3.19l4.84-1.09,3,.77a.45.45,0,0,0,.16,0,.63.63,0,0,0,.4-.14.68.68,0,0,0,.26-.52V1.7A.66.66,0,0,0,16.8,1.18ZM6.25,10.05h.48a.28.28,0,0,1,.28.27v1a.29.29,0,0,1-.28.28H6.25ZM4.64,9.28a5.18,5.18,0,0,0,1.11-.13v4.06a1.52,1.52,0,0,0,.06.42l.31,1.13a.2.2,0,0,1,0,.18.21.21,0,0,1-.17.08H3.06a.22.22,0,0,1-.16-.08.21.21,0,0,1,0-.17l.24-1.06a1.49,1.49,0,0,0,0-.63L2.32,8.77h0l0-.13A4.57,4.57,0,0,0,4.64,9.28Zm11.92-1.7a.15.15,0,0,1-.06.12.15.15,0,0,1-.14,0L13.54,7V2.29l2.82-.74a.15.15,0,0,1,.14,0,.14.14,0,0,1,.06.12Z"/></g></g></svg>