<svg xmlns="http://www.w3.org/2000/svg" viewBox="0 0 9.49 16.75"><title>Hotels (2)@4xу</title><g id="Слой_2" data-name="Слой 2"><g id="icons"><g id="Hotels"><path d="M8.1,4.47H6.42V1.4H7a.29.29,0,0,0,.28-.28V.28A.29.29,0,0,0,7,0H2.51a.29.29,0,0,0-.28.28v.84a.29.29,0,0,0,.28.28h.56V4.47H1.4A1.4,1.4,0,0,0,0,5.86v8.66a1.4,1.4,0,0,0,1.4,1.4v.55a.27.27,0,0,0,.28.28H2.79a.27.27,0,0,0,.28-.28v-.55H6.42v.55a.28.28,0,0,0,.28.28H7.82a.28.28,0,0,0,.28-.28v-.55a1.4,1.4,0,0,0,1.39-1.4V5.86A1.39,1.39,0,0,0,8.1,4.47ZM2.79.56H6.7V.84H2.79Zm.84.84H5.86V4.47H3.63ZM2.51,16.2H2v-.28h.56Zm5,0H7v-.28h.56Zm1.4-1.68a.85.85,0,0,1-.84.84H1.4a.84.84,0,0,1-.84-.84V5.86A.83.83,0,0,1,1.4,5H8.1a.84.84,0,0,1,.84.83Z"/></g></g></g></svg>