<svg xmlns="http://www.w3.org/2000/svg" viewBox="0 0 16.63 17.04"><defs><style>.cls-1{stroke:#fff;stroke-miterlimit:10;stroke-width:0.13px;}</style></defs><title>Invitations@4xу</title><g id="Слой_2" data-name="Слой 2"><g id="icons"><g id="Invitations"><path class="cls-1" d="M16.56,16.55V6.13c0-.1-.13-.24-.26-.34l-2.72-2V1.63a.36.36,0,0,0-.36-.36H10.11L8.53.12a.41.41,0,0,0-.4,0L6.55,1.27H3.45a.36.36,0,0,0-.36.36V3.79l-2.76,2a.51.51,0,0,0-.27.35V16.62A.37.37,0,0,0,.4,17H16.2C16.43,17,16.56,16.8,16.56,16.55Zm-.68-9.77V15.9l-6-4.77,6-4.35Zm-.27-.63-2,1.48v-3l2,1.5ZM8.32.8,9,1.27H7.68L8.32.8ZM12.86,2V8.16l-4.54,3.3L3.78,8.16V2ZM.75,6.78l6,4.35-6,4.8Zm2.34.88L1,6.14,3.09,4.62ZM1.4,16.29l5.89-4.74.81.6a.3.3,0,0,0,.43,0l.81-.6,5.92,4.74Z"/></g></g></g></svg>