<svg xmlns="http://www.w3.org/2000/svg" viewBox="0 0 17.14 13.28"><defs><style>.cls-1{stroke:#fff;stroke-miterlimit:10;stroke-width:0.1px;}</style></defs><title>limos (2)@4xу</title><g id="Слой_2" data-name="Слой 2"><g id="icons"><g id="limos"><path class="cls-1" d="M16.43,5l-.37-.4L14.76,1a1.52,1.52,0,0,0-1.42-1H4A1.52,1.52,0,0,0,2.61,1L1.32,4.51.79,5A2.09,2.09,0,0,0,.05,6.59v5.12a1.52,1.52,0,0,0,1.52,1.52h1a1.52,1.52,0,0,0,1.52-1.52V11h9v.74a1.53,1.53,0,0,0,1.52,1.52h1a1.53,1.53,0,0,0,1.53-1.52V6.46A2.11,2.11,0,0,0,16.43,5ZM3.29,1.29A.79.79,0,0,1,4,.78h9.31a.79.79,0,0,1,.74.51l1.13,3.06h-.84a2.5,2.5,0,0,0-4.94,0H2.15ZM13.62,4.35H10.16a1.77,1.77,0,0,1,3.46,0ZM3.33,11.71a.8.8,0,0,1-.8.79h-1a.79.79,0,0,1-.79-.79v-1a1.48,1.48,0,0,0,.79.21H3.33Zm13,0a.8.8,0,0,1-.8.79h-1a.79.79,0,0,1-.79-.79V11h1.75a1.52,1.52,0,0,0,.8-.21v1Zm-.8-1.47h-14a.78.78,0,0,1-.79-.78V6.59a1.38,1.38,0,0,1,.48-1h0l.49-.47H15.56l.35.38v0a1.33,1.33,0,0,1,.43,1v3h0A.79.79,0,0,1,15.56,10.24Z"/></g></g></g></svg>