<svg xmlns="http://www.w3.org/2000/svg" viewBox="0 0 17.73 17.73"><defs><style>.cls-1{stroke:#fff;stroke-miterlimit:10;stroke-width:0.73px;}</style></defs><title>MCs@4xу</title><g id="Слой_2" data-name="Слой 2"><g id="icons"><path id="MCs" class="cls-1" d="M16,1.74A4.69,4.69,0,0,0,8.05,4.3a.68.68,0,0,0-.69.15L5.43,6.38a.66.66,0,0,0,0,.94l.75.76L.53,14.54a.65.65,0,0,0,0,.9l1.73,1.73a.65.65,0,0,0,.9,0l6.46-5.65.76.75a.66.66,0,0,0,.94,0l1.93-1.93a.68.68,0,0,0,.15-.69A4.69,4.69,0,0,0,16,1.74ZM2.79,15.79l-.85-.85L7.12,9l1.59,1.59Zm8.09-4.9-4-4,1-1,4,4Zm1.34-2.51L9.35,5.51a3.36,3.36,0,1,1,2.87,2.87Z"/></g></g></svg>