<svg xmlns="http://www.w3.org/2000/svg" viewBox="0 0 18.68 13.44"><defs><style>.cls-1{stroke:#fff;stroke-miterlimit:10;stroke-width:0.13px;}</style></defs><title>Officiants@4xу</title><g id="Слой_2" data-name="Слой 2"><g id="icons"><g id="Officiants"><path class="cls-1" d="M18.26,1.17H17V.76A.36.36,0,0,0,16.78.4,9.49,9.49,0,0,0,14.19.07,6.7,6.7,0,0,0,9.34,1.86,6.62,6.62,0,0,0,4.49.07,9.39,9.39,0,0,0,1.9.4a.35.35,0,0,0-.26.36v.41H.42a.36.36,0,0,0-.36.36V13a.37.37,0,0,0,.36.36.35.35,0,0,0,.18-.05,12.63,12.63,0,0,1,8.65-.72h.18a12.45,12.45,0,0,1,8.65.72.38.38,0,0,0,.36,0,.35.35,0,0,0,.18-.31V1.53A.36.36,0,0,0,18.26,1.17ZM.78,12.44V1.89h.86v9a.37.37,0,0,0,.36.37h.06a16.79,16.79,0,0,1,2.25-.18,9.16,9.16,0,0,1,3.07.47A13.29,13.29,0,0,0,.78,12.44Zm3.53-2.06a16,16,0,0,0-2,.12V1A9.53,9.53,0,0,1,4.48.8,5.88,5.88,0,0,1,9,2.56v9A8.42,8.42,0,0,0,4.31,10.38ZM9.7,2.56A6,6,0,0,1,14.19.8,9.53,9.53,0,0,1,16.32,1V10.5a17.88,17.88,0,0,0-1.94-.13A8.47,8.47,0,0,0,9.7,11.52Zm8.2,9.88a13.22,13.22,0,0,0-6.61-.88,9.28,9.28,0,0,1,3.09-.47,17.21,17.21,0,0,1,2.26.18.37.37,0,0,0,.41-.3V1.89h.86Z"/></g></g></g></svg>