<svg xmlns="http://www.w3.org/2000/svg" viewBox="0 0 12.5 17.55"><defs><style>.cls-1{stroke:#fff;stroke-miterlimit:10;stroke-width:0.9px;}</style></defs><title>Photo booths@4xу</title><g id="Слой_2" data-name="Слой 2"><g id="icons"><path id="Photo_booths" data-name="Photo booths" class="cls-1" d="M11.55,15.63V2.77a.75.75,0,0,0-.3-.65,8.31,8.31,0,0,0-10,0,.75.75,0,0,0-.31.6V15.63a.75.75,0,0,0-.5.71.76.76,0,0,0,.76.76H11.3a.76.76,0,0,0,.25-1.47ZM2.47,3.11a6.8,6.8,0,0,1,7.57,0V4H2.47Zm3,12.48V8.52H7v7.07Zm3,0V7.77A.76.76,0,0,0,7.77,7h-3A.76.76,0,0,0,4,7.77v7.82H2.47V5.5H10V15.59Z"/></g></g></svg>