<svg xmlns="http://www.w3.org/2000/svg" viewBox="0 0 17.4 14.21"><title>photographers@4xу</title><g id="Слой_2" data-name="Слой 2"><g id="icons"><g id="photographers"><path d="M16,2.9H13.54L12.38,0H5L3.86,2.9H3.48V1.45H1.74V2.9H1.39A1.39,1.39,0,0,0,0,4.29v8.52a1.4,1.4,0,0,0,1.4,1.4H16a1.4,1.4,0,0,0,1.4-1.4V4.29A1.39,1.39,0,0,0,16,2.9ZM2.32,2H2.9V2.9H2.32Zm14.5,10.78a.82.82,0,0,1-.82.82H1.4a.82.82,0,0,1-.82-.82V4.29a.81.81,0,0,1,.81-.81H4.26L5.42.58H12l1.16,2.9H16a.81.81,0,0,1,.81.81Z"/><path d="M9.38,4.42a3.48,3.48,0,1,0,2.73,2.73A3.47,3.47,0,0,0,9.38,4.42Zm-.11,6.26A2.91,2.91,0,1,1,11.55,8.4,2.91,2.91,0,0,1,9.27,10.68Z"/><path d="M15.08,4.06a1.16,1.16,0,1,0,1.16,1.16A1.16,1.16,0,0,0,15.08,4.06Zm0,1.74a.58.58,0,1,1,.58-.58A.58.58,0,0,1,15.08,5.8Z"/></g></g></g></svg>