<svg xmlns="http://www.w3.org/2000/svg" viewBox="0 0 12.03 17.13"><defs><style>.cls-1{stroke:#fff;stroke-miterlimit:10;stroke-width:0.38px;}</style></defs><title>Furniture and event rentals@4xу</title><g id="Слой_2" data-name="Слой 2"><g id="icons"><path id="Furniture_and_event_rentals" data-name="Furniture and event rentals" class="cls-1" d="M10.49,8V.68A.49.49,0,0,0,10,.19H2a.49.49,0,0,0-.49.49V8A2,2,0,0,0,.19,9.82v1a.49.49,0,0,0,.49.49H1l.32,5.21a.49.49,0,0,0,.49.46H3.28a.49.49,0,0,0,.49-.49V11.27H8.26v5.18a.49.49,0,0,0,.5.49h1.48a.5.5,0,0,0,.5-.46l.31-5.21h.3a.49.49,0,0,0,.49-.49v-1A2,2,0,0,0,10.49,8Zm-8-6.79h7v6.7h-7ZM1.18,9.82a1,1,0,0,1,1-1H9.9a1,1,0,0,1,1,1v.47H1.18ZM2.78,16H2.25L2,11.27h.81Zm7,0H9.25V11.27h.82Z"/></g></g></svg>