<svg xmlns="http://www.w3.org/2000/svg" viewBox="0 0 17.28 14.67"><defs><style>.cls-1{stroke:#000;stroke-miterlimit:10;stroke-width:0.08px;}</style></defs><title>Rings and jewelry (2)@4xу</title><g id="Слой_2" data-name="Слой 2"><g id="icons"><g id="Rings_and_jewelry" data-name="Rings and jewelry"><path class="cls-1" d="M8.64,14.63a.25.25,0,0,1-.2-.09L.1,4.64a.27.27,0,0,1,0-.33L3.22.14A.28.28,0,0,1,3.43,0H13.85a.28.28,0,0,1,.21.1l3.12,4.17a.27.27,0,0,1,0,.33l-8.34,9.9A.27.27,0,0,1,8.64,14.63ZM.63,4.46l8,9.51,8-9.51L13.72.56H3.56Z"/><path class="cls-1" d="M17,4.73H.3a.26.26,0,0,1,0-.52H17a.26.26,0,1,1,0,.52Z"/><path class="cls-1" d="M8.64,14.63H8.56a.26.26,0,0,1-.17-.33l3.13-9.9a.26.26,0,0,1,.32-.17.26.26,0,0,1,.17.33l-3.12,9.9A.27.27,0,0,1,8.64,14.63Z"/><path class="cls-1" d="M8.64,14.63a.26.26,0,0,1-.25-.18L5.26,4.55a.27.27,0,0,1,.17-.33.26.26,0,0,1,.33.17l3.13,9.9a.27.27,0,0,1-.17.33Z"/><path class="cls-1" d="M5.51,4.73a.25.25,0,0,1-.23-.14L3.19.42A.26.26,0,0,1,3.31.07a.26.26,0,0,1,.35.11L5.74,4.35a.25.25,0,0,1-.11.35Z"/><path class="cls-1" d="M5.51,4.73a.27.27,0,0,1-.21-.42L8.43.14A.28.28,0,0,1,8.8.09a.28.28,0,0,1,0,.37L5.72,4.63A.28.28,0,0,1,5.51,4.73Z"/><path class="cls-1" d="M11.76,4.73a.28.28,0,0,1-.2-.1L8.43.46A.27.27,0,0,1,8.48.09a.28.28,0,0,1,.37.05L12,4.31a.26.26,0,0,1-.05.37A.3.3,0,0,1,11.76,4.73Z"/><path class="cls-1" d="M11.76,4.73l-.11,0a.26.26,0,0,1-.12-.35L13.62.18a.26.26,0,0,1,.46.24L12,4.59A.27.27,0,0,1,11.76,4.73Z"/></g></g></g></svg>