<svg xmlns="http://www.w3.org/2000/svg" viewBox="0 0 13.16 17.42"><defs><style>.cls-1{stroke:#fff;stroke-miterlimit:10;stroke-width:0.4px;}</style></defs><title>Tuxedos and suits@4xу</title><g id="Слой_2" data-name="Слой 2"><g id="icons"><g id="Tuxedos_and_suits" data-name="Tuxedos and suits"><path class="cls-1" d="M12.73,6a3.82,3.82,0,0,1-1.57-3.26A4.51,4.51,0,0,1,11.52.9l.31-.7H1.28l.31.7A4.44,4.44,0,0,1,2,2.69,3.81,3.81,0,0,1,.43,5.92L.2,6.07V16.38L6,17.2l.59-1,.6,1L13,16.38V6.1ZM8.27,1.2,6.58,6,4.89,1.2ZM5.46,16.11l-4.26-.6V6.6A4.89,4.89,0,0,0,3,2.69a5.35,5.35,0,0,0-.2-1.49H3.83L6.08,7.53V15Zm6.5-.6-4.25.6L7.08,15V7.53L9.34,1.2h1a5.35,5.35,0,0,0-.2,1.49,4.87,4.87,0,0,0,1.8,4Z"/></g></g></g></svg>