<svg xmlns="http://www.w3.org/2000/svg" viewBox="0 0 14.5 17.78"><defs><style>.cls-1{stroke:#fff;stroke-miterlimit:10;stroke-width:0.6px;}</style></defs><title>Venues@4xу</title><g id="Слой_2" data-name="Слой 2"><g id="icons"><g id="Venues"><path class="cls-1" d="M13,3.29a6.83,6.83,0,0,0-5.7-3,6.83,6.83,0,0,0-5.7,3A6.92,6.92,0,0,0,.74,9.68a5.18,5.18,0,0,0,1,1.66l5,5.93a.61.61,0,0,0,.92,0l5-5.93a5.18,5.18,0,0,0,1-1.66A6.92,6.92,0,0,0,13,3.29Zm-.32,6a4.28,4.28,0,0,1-.79,1.3h0L7.25,16,2.66,10.56a4.53,4.53,0,0,1-.8-1.3A5.72,5.72,0,0,1,2.54,4,5.64,5.64,0,0,1,7.25,1.5,5.64,5.64,0,0,1,12,4,5.71,5.71,0,0,1,12.63,9.26Z"/><path class="cls-1" d="M7.25,3.86a3.37,3.37,0,1,0,3.36,3.37A3.37,3.37,0,0,0,7.25,3.86Zm0,5.53A2.16,2.16,0,1,1,9.41,7.23,2.16,2.16,0,0,1,7.25,9.39Z"/></g></g></g></svg>