<svg xmlns="http://www.w3.org/2000/svg" viewBox="0 0 17.01 13.49"><title>Videographers@4xу</title><g id="Слой_2" data-name="Слой 2"><g id="icons"><g id="Videographers"><path d="M10.72,6.5l-3.23-2a.27.27,0,0,0-.3,0A.29.29,0,0,0,7,4.69V8.8a.31.31,0,0,0,.15.26.35.35,0,0,0,.14,0,.29.29,0,0,0,.16,0L10.72,7a.28.28,0,0,0,.13-.24A.3.3,0,0,0,10.72,6.5ZM7.63,8.26v-3L10,6.75Z"/><path d="M16.72,0H.29A.29.29,0,0,0,0,.29V13.2a.29.29,0,0,0,.29.29H16.72A.29.29,0,0,0,17,13.2V.29A.29.29,0,0,0,16.72,0ZM2.93,6.45H.59V3.81H2.93ZM.59,7H2.93V9.68H.59ZM3.52,10V.59h10V12.9h-10Zm12.9-3.52H14.08V3.81h2.34ZM14.08,7h2.34V9.68H14.08ZM16.42.59V3.23H14.08V.59ZM.59.59H2.93V3.23H.59Zm0,12.31V10.27H2.93V12.9Zm15.83,0H14.08V10.27h2.34Z"/></g></g></g></svg>