<svg xmlns="http://www.w3.org/2000/svg" viewBox="0 0 17 17"><title>Planners@4xу</title><g id="Слой_2" data-name="Слой 2"><g id="icons"><path id="Planners" d="M16.76,1.05,16,.25a.85.85,0,0,0-1.2,0l-.88.88H0V17H15.86V3.14L16,3.05h0l.81-.8A.85.85,0,0,0,16.76,1.05ZM5.68,10.41l.91.91-1.25.35Zm9.07-6.95-1.2-1.21.4-.4,1.2,1.2Zm-.4.4L7.14,11.07l-1.2-1.2,7.21-7.22Zm1-.15V16.43H.57V1.7H13.3l-8,8,0,.05-.6,2.2-.35.35a.28.28,0,0,0,0,.4.27.27,0,0,0,.2.08.24.24,0,0,0,.2-.08l.35-.35,2.2-.6,7.47-7.46h0l.13-.13Zm1.06-1.86-.81.8-1.2-1.2.8-.8a.28.28,0,0,1,.4,0l.81.81A.29.29,0,0,1,16.36,1.85Z"/></g></g></svg>