<svg xmlns="http://www.w3.org/2000/svg" viewBox="0 0 14.96 17.09"><defs><style>.cls-1{stroke:#fff;stroke-miterlimit:10;stroke-width:0.1px;}</style></defs><title>Dresses and accessories@4xу</title><g id="Слой_2" data-name="Слой 2"><g id="icons"><path id="Dresses_and_accessories" data-name="Dresses and accessories" class="cls-1" d="M11.47,7.77V6.63A7.08,7.08,0,0,0,12,3.73,12.7,12.7,0,0,1,12.46,1L12.57.6,10.21.06,10.13.4a3.07,3.07,0,0,1-.51,1,2.6,2.6,0,0,1-2.14,1A2.67,2.67,0,0,1,4.83.4L4.75.06,2.39.6,2.5,1A13.17,13.17,0,0,1,3,3.73a7.13,7.13,0,0,0,.48,2.9V7.77L.06,15.5l.2.17C.33,15.73,1.93,17,7.48,17s7.15-1.31,7.22-1.37l.2-.17ZM4.2,7.49V7h6.56v.5ZM4.26.9a3.61,3.61,0,0,0,.53.91A3.28,3.28,0,0,0,7.48,3.06a3.28,3.28,0,0,0,2.69-1.25A3.33,3.33,0,0,0,10.7.9l1,.22a10.79,10.79,0,0,0-.44,2.64,6.37,6.37,0,0,1-.4,2.52H4.11a6.37,6.37,0,0,1-.4-2.52,10.79,10.79,0,0,0-.44-2.64Zm8.59,14.84a20.57,20.57,0,0,1-5.37.6,20.57,20.57,0,0,1-5.37-.6,6.33,6.33,0,0,1-1.18-.47L4.07,8.19H5.38l-.69,3.08.69.15L6.1,8.19H8.82l.73,3.23.69-.15L9.55,8.19h1.33L14,15.27A5.88,5.88,0,0,1,12.85,15.74Z"/></g></g></svg>